<svg width="47" height="41" viewBox="0 0 47 41" fill="none" xmlns="http://www.w3.org/2000/svg">
<g id="Group 505">
<path id="Vector" d="M41.0865 18.9237V17.8724C41.0865 13.1323 39.1996 8.58643 35.841 5.23471C32.4823 1.88298 27.9269 0 23.177 0C18.4271 0 13.8718 1.88298 10.5131 5.23471C7.15439 8.58643 5.2675 13.1323 5.2675 17.8724V18.9237C3.87099 18.9254 2.53215 19.4797 1.54466 20.4652C0.557177 21.4506 0.00167281 22.7867 0 24.1803V26.2829C0.00167281 27.6766 0.557177 29.0126 1.54466 29.9981C2.53215 30.9835 3.87099 31.5379 5.2675 31.5395H5.46135C5.67846 32.1524 6.08 32.6833 6.61103 33.0597C7.14207 33.436 7.77667 33.6395 8.428 33.6422H10.535C11.3732 33.6422 12.1771 33.3099 12.7698 32.7184C13.3625 32.1269 13.6955 31.3247 13.6955 30.4882V19.975C13.6955 19.1386 13.3625 18.3363 12.7698 17.7449C12.1771 17.1534 11.3732 16.8211 10.535 16.8211H8.428C8.08395 16.825 7.74293 16.8858 7.41875 17.0009C7.63749 12.9777 9.39309 9.19112 12.3243 6.42035C15.2556 3.64958 19.1395 2.10533 23.177 2.10533C27.2145 2.10533 31.0984 3.64958 34.0297 6.42035C36.9609 9.19112 38.7165 12.9777 38.9353 17.0009C38.6111 16.8858 38.2701 16.825 37.926 16.8211H35.819C34.9808 16.8211 34.1769 17.1534 33.5842 17.7449C32.9915 18.3363 32.6585 19.1386 32.6585 19.975V30.4882C32.6585 31.3247 32.9915 32.1269 33.5842 32.7184C34.1769 33.3099 34.9808 33.6422 35.819 33.6422C35.819 34.4787 35.486 35.2809 34.8933 35.8724C34.3006 36.4638 33.4967 36.7961 32.6585 36.7961H28.2507C28.0336 36.1833 27.632 35.6524 27.101 35.276C26.5699 34.8996 25.9354 34.6962 25.284 34.6935H21.07C20.2318 34.6935 19.4279 35.0258 18.8352 35.6173C18.2425 36.2087 17.9095 37.011 17.9095 37.8474C17.9095 38.6839 18.2425 39.4861 18.8352 40.0776C19.4279 40.6691 20.2318 41.0014 21.07 41.0014H25.284C25.9354 40.9987 26.5699 40.7952 27.101 40.4189C27.632 40.0425 28.0336 39.5116 28.2507 38.8988H32.6585C34.055 38.8971 35.3939 38.3427 36.3814 37.3573C37.3688 36.3719 37.9243 35.0358 37.926 33.6422C38.5774 33.6395 39.212 33.436 39.743 33.0597C40.274 32.6833 40.6756 32.1524 40.8927 31.5395H41.0865C42.483 31.5379 43.8219 30.9835 44.8094 29.9981C45.7968 29.0126 46.3523 27.6766 46.354 26.2829V24.1803C46.3523 22.7867 45.7968 21.4506 44.8094 20.4652C43.8219 19.4797 42.483 18.9254 41.0865 18.9237ZM2.107 26.2829V24.1803C2.107 23.3438 2.43998 22.5416 3.03269 21.9501C3.6254 21.3587 4.42929 21.0264 5.2675 21.0264V29.4369C4.42929 29.4369 3.6254 29.1046 3.03269 28.5131C2.43998 27.9216 2.107 27.1194 2.107 26.2829ZM8.428 18.9237H10.535C10.8144 18.9237 11.0824 19.0345 11.2799 19.2316C11.4775 19.4288 11.5885 19.6962 11.5885 19.975V30.4882C11.5885 30.767 11.4775 31.0345 11.2799 31.2316C11.0824 31.4288 10.8144 31.5395 10.535 31.5395H8.428C8.1486 31.5395 7.88064 31.4288 7.68307 31.2316C7.4855 31.0345 7.3745 30.767 7.3745 30.4882V19.975C7.3745 19.6962 7.4855 19.4288 7.68307 19.2316C7.88064 19.0345 8.1486 18.9237 8.428 18.9237ZM25.284 38.8988H21.07C20.7906 38.8988 20.5226 38.788 20.3251 38.5908C20.1275 38.3937 20.0165 38.1263 20.0165 37.8474C20.0165 37.5686 20.1275 37.3012 20.3251 37.1041C20.5226 36.9069 20.7906 36.7961 21.07 36.7961H25.284C25.5634 36.7961 25.8314 36.9069 26.029 37.1041C26.2265 37.3012 26.3375 37.5686 26.3375 37.8474C26.3375 38.1263 26.2265 38.3937 26.029 38.5908C25.8314 38.788 25.5634 38.8988 25.284 38.8988ZM37.926 31.5395H35.819C35.5396 31.5395 35.2717 31.4288 35.0741 31.2316C34.8765 31.0345 34.7655 30.767 34.7655 30.4882V19.975C34.7655 19.6962 34.8765 19.4288 35.0741 19.2316C35.2717 19.0345 35.5396 18.9237 35.819 18.9237H37.926C38.2054 18.9237 38.4734 19.0345 38.671 19.2316C38.8685 19.4288 38.9795 19.6962 38.9795 19.975V30.4882C38.9795 30.767 38.8685 31.0345 38.671 31.2316C38.4734 31.4288 38.2054 31.5395 37.926 31.5395ZM44.247 26.2829C44.247 27.1194 43.914 27.9216 43.3213 28.5131C42.7286 29.1046 41.9247 29.4369 41.0865 29.4369V21.0264C41.9247 21.0264 42.7286 21.3587 43.3213 21.9501C43.914 22.5416 44.247 23.3438 44.247 24.1803V26.2829Z" fill="#1FAD90"/>
</g>
</svg>
