<svg width="48" height="48" viewBox="0 0 48 48" fill="none" xmlns="http://www.w3.org/2000/svg">
<g id="Quality Badge" clip-path="url(#clip0_244_27)">
<path id="Vector" d="M47.0697 24C47.0697 11.2593 36.7414 0.930908 24.0007 0.930908C11.26 0.930908 0.931641 11.2593 0.931641 24C0.931641 36.7406 11.26 47.069 24.0007 47.069C36.7414 47.069 47.0697 36.7406 47.0697 24Z" stroke="#1FAD90" stroke-width="2" stroke-miterlimit="10"/>
<path id="Vector_2" d="M37.6474 22.1473C37.6477 21.6157 37.4964 21.0951 37.2111 20.6465C36.9258 20.198 36.5184 19.8401 36.0368 19.6151C35.3215 19.2341 34.7738 18.6001 34.5008 17.837L34.4449 17.688C34.128 16.9312 34.0917 16.086 34.3425 15.3048C34.4951 14.818 34.5114 14.2987 34.3898 13.8033C34.2681 13.3079 34.0131 12.8553 33.6524 12.4945C33.2916 12.1338 32.839 11.8788 32.3436 11.7571C31.8482 11.6355 31.3289 11.6518 30.8421 11.8044C30.0609 12.0552 29.2157 12.0189 28.4589 11.702L28.3099 11.6368C27.5456 11.3709 26.9103 10.8254 26.5318 10.1101C26.3073 9.62768 25.9498 9.21944 25.5012 8.93339C25.0526 8.64733 24.5316 8.49536 23.9996 8.49536C23.4676 8.49536 22.9466 8.64733 22.498 8.93339C22.0494 9.21944 21.6918 9.62768 21.4674 10.1101C21.0897 10.8224 20.4585 11.3672 19.6986 11.6368L19.5403 11.702C18.7835 12.0189 17.9383 12.0552 17.1571 11.8044C16.6703 11.6518 16.151 11.6355 15.6556 11.7571C15.1602 11.8788 14.7076 12.1338 14.3468 12.4945C13.9861 12.8553 13.7311 13.3079 13.6094 13.8033C13.4878 14.2987 13.5041 14.818 13.6567 15.3048C13.9105 16.0849 13.8774 16.93 13.5636 17.688C13.538 17.7359 13.5162 17.7857 13.4984 17.837C13.2254 18.6001 12.6777 19.2341 11.9624 19.6151C11.48 19.8395 11.0717 20.1971 10.7857 20.6457C10.4996 21.0943 10.3477 21.6153 10.3477 22.1473C10.3477 22.6793 10.4996 23.2003 10.7857 23.6489C11.0717 24.0975 11.48 24.4551 11.9624 24.6795C12.6771 25.0568 13.225 25.6877 13.4984 26.4483C13.5161 26.5026 13.5379 26.5555 13.5636 26.6066C13.857 27.3578 13.8768 28.1883 13.6195 28.9526C13.4669 29.4394 13.4505 29.9586 13.5722 30.454C13.6938 30.9495 13.9489 31.4021 14.3096 31.7628C14.6703 32.1235 15.1229 32.3786 15.6184 32.5002C16.1138 32.6219 16.6331 32.6056 17.1198 32.453C17.8993 32.1942 18.7462 32.2272 19.5031 32.5461L19.6613 32.6112C20.4224 32.8839 21.0535 33.432 21.4302 34.1473C21.6546 34.6297 22.0122 35.0379 22.4608 35.324C22.9093 35.61 23.4303 35.762 23.9624 35.762C24.4944 35.762 25.0154 35.61 25.464 35.324C25.9126 35.0379 26.2701 34.6297 26.4946 34.1473C26.8727 33.4296 27.5077 32.8811 28.2727 32.6112L28.4216 32.5461C29.1785 32.2272 30.0254 32.1942 30.8049 32.453C31.2917 32.6056 31.8109 32.6219 32.3063 32.5002C32.8018 32.3786 33.2544 32.1235 33.6151 31.7628C33.9758 31.4021 34.2309 30.9495 34.3525 30.454C34.4742 29.9586 34.4578 29.4394 34.3053 28.9526C34.0544 28.1713 34.0908 27.3262 34.4077 26.5693L34.4635 26.4111C34.737 25.6505 35.2849 25.0196 35.9996 24.6423C36.4825 24.4253 36.8937 24.0756 37.1855 23.6339C37.4772 23.1921 37.6374 22.6766 37.6474 22.1473Z" stroke="#1FAD90" stroke-width="2" stroke-miterlimit="10"/>
<path id="Vector_3" d="M19.1035 22.1939L22.3432 25.4243L28.8972 18.8704" stroke="#1FAD90" stroke-width="2" stroke-linecap="round" stroke-linejoin="round"/>
<path id="Vector_4" d="M15.0822 32.3228L12.4011 37.3313C12.3659 37.3986 12.3505 37.4745 12.3569 37.5502C12.3632 37.6258 12.3909 37.6981 12.4368 37.7587C12.4826 37.8192 12.5448 37.8654 12.6159 37.8919C12.6871 37.9185 12.7643 37.9242 12.8386 37.9085L16.6183 37.1265C16.7002 37.1088 16.7855 37.1173 16.8624 37.1507C16.9392 37.1841 17.0036 37.2407 17.0465 37.3127L18.2381 39.2863C18.2729 39.3483 18.3236 39.3999 18.385 39.4358C18.4463 39.4718 18.5162 39.4907 18.5873 39.4907C18.6584 39.4907 18.7282 39.4718 18.7895 39.4358C18.8509 39.3999 18.9016 39.3483 18.9364 39.2863L21.4779 34.2312M32.5935 32.4624L35.2001 37.3406C35.2353 37.4079 35.2507 37.4838 35.2443 37.5595C35.238 37.6351 35.2103 37.7075 35.1644 37.768C35.1186 37.8285 35.0564 37.8747 34.9853 37.9012C34.9141 37.9278 34.8369 37.9335 34.7626 37.9178L30.9829 37.1358C30.901 37.1181 30.8157 37.1266 30.7388 37.16C30.662 37.1934 30.5976 37.25 30.5547 37.322L29.363 39.2956C29.3283 39.3576 29.2776 39.4092 29.2162 39.4452C29.1549 39.4811 29.085 39.5 29.0139 39.5C28.9428 39.5 28.873 39.4811 28.8117 39.4452C28.7503 39.4092 28.6996 39.3576 28.6648 39.2956L26.3095 34.6408" stroke="#1FAD90" stroke-width="2" stroke-miterlimit="10"/>
</g>
<defs>
<clipPath id="clip0_244_27">
<rect width="48" height="48" fill="white"/>
</clipPath>
</defs>
</svg>
