<svg width="46" height="46" viewBox="0 0 46 46" fill="none" xmlns="http://www.w3.org/2000/svg">
<g id="Sentiment Very Satisfied" clip-path="url(#clip0_306_9)">
<path id="Vector" d="M22.981 3.83331C12.401 3.83331 3.8335 12.4008 3.8335 23C3.8335 33.5991 12.401 42.1666 22.981 42.1666C33.561 42.1666 42.1668 33.5991 42.1668 23C42.1668 12.4008 33.5802 3.83331 22.981 3.83331ZM23.0002 38.3333C14.5285 38.3333 7.66683 31.4716 7.66683 23C7.66683 14.5283 14.5285 7.66665 23.0002 7.66665C31.4718 7.66665 38.3335 14.5283 38.3335 23C38.3335 31.4716 31.4718 38.3333 23.0002 38.3333ZM24.9168 19.0516L26.9485 21.0833L28.9802 19.0516L31.0118 21.0833L33.0435 19.0516L28.9802 14.9883L24.9168 19.0516ZM17.0202 19.0516L19.0518 21.0833L21.0835 19.0516L17.0202 14.9883L12.9568 19.0516L14.9885 21.0833L17.0202 19.0516ZM23.0002 33.5416C27.466 33.5416 31.261 30.7433 32.7943 26.8333H13.206C14.7393 30.7433 18.5343 33.5416 23.0002 33.5416Z" fill="#1FAD90"/>
</g>
<defs>
<clipPath id="clip0_306_9">
<rect width="46" height="46" fill="white"/>
</clipPath>
</defs>
</svg>
