<svg width="36" height="36" viewBox="0 0 36 36" fill="none" xmlns="http://www.w3.org/2000/svg">
<g id="Email">
<path id="Vector" d="M32.625 21.3243V9.39369C32.6236 8.94188 32.5261 8.49554 32.3389 8.08432C32.1518 7.6731 31.8792 7.30644 31.5394 7.00869C30.9664 6.51236 30.233 6.24057 29.475 6.24369H3.15C2.39356 6.23988 1.66165 6.51185 1.09125 7.00869C0.749551 7.30521 0.475352 7.67151 0.287116 8.08291C0.0988802 8.49431 0.000977469 8.94127 0 9.39369L0 26.6062C0.00136494 27.058 0.0988782 27.5043 0.286059 27.9156C0.473239 28.3268 0.7458 28.6934 1.08562 28.9912C1.65855 29.4875 2.39199 29.7593 3.15 29.7562H22.3931C22.8982 31.0926 23.7975 32.244 24.9719 33.0576C26.1462 33.8713 27.5401 34.3089 28.9688 34.3124V32.0624C28.0178 32.0669 27.0872 31.7877 26.2958 31.2605C25.5044 30.7333 24.8881 29.9821 24.5258 29.1029C24.1635 28.2237 24.0716 27.2565 24.2618 26.3248C24.4521 25.3931 24.9158 24.5392 25.5938 23.8724C26.0481 23.4207 26.5895 23.0661 27.1852 22.8301C27.7809 22.5942 28.4183 22.4818 29.0588 22.4999C30.335 22.5554 31.5392 23.1067 32.4153 24.0363C33.2914 24.966 33.7703 26.2008 33.75 27.4781V29.5312C33.75 29.6804 33.6907 29.8235 33.5852 29.9289C33.4798 30.0344 33.3367 30.0937 33.1875 30.0937C33.0383 30.0937 32.8952 30.0344 32.7898 29.9289C32.6843 29.8235 32.625 29.6804 32.625 29.5312V27.2812C32.6274 26.4838 32.3698 25.7073 31.8912 25.0694C31.4127 24.4315 30.7393 23.9669 29.973 23.7461C29.2068 23.5253 28.3894 23.5603 27.6448 23.8457C26.9002 24.1312 26.2689 24.6515 25.8466 25.3279C25.4243 26.0043 25.2339 26.8 25.3044 27.5943C25.3748 28.3886 25.7023 29.1383 26.2371 29.7299C26.7719 30.3214 27.4849 30.7225 28.2681 30.8724C29.0513 31.0223 29.8621 30.9128 30.5775 30.5606C30.8203 31.1654 31.2656 31.6672 31.8374 31.98C32.4091 32.2929 33.0718 32.3975 33.7121 32.276C34.3524 32.1544 34.9307 31.8143 35.348 31.3136C35.7653 30.813 35.9957 30.1829 36 29.5312V27.4781C35.9986 26.2516 35.6888 25.0452 35.099 23.9698C34.5093 22.8945 33.6585 21.9847 32.625 21.3243ZM28.215 8.49369L18.1462 16.5993C17.6253 17.0146 16.9788 17.2408 16.3125 17.2408C15.6463 17.2408 14.9997 17.0146 14.4788 16.5993L4.41 8.49369H28.215ZM30.375 20.4018C29.9551 20.3111 29.5276 20.2603 29.0981 20.2499C27.2772 20.2141 25.5145 20.8925 24.1875 22.1399L20.5819 19.6087L19.2881 21.4537L22.7981 23.9118C22.2336 24.9469 21.9395 26.1078 21.9431 27.2868V27.5118H4.69688L13.3425 21.4537L12.0544 19.6087L2.25 26.4712V9.64119L13.0669 18.3487C13.9887 19.0844 15.1331 19.4851 16.3125 19.4851C17.4919 19.4851 18.6363 19.0844 19.5581 18.3487L30.375 9.64119V20.4018ZM28.9688 28.6874C28.6906 28.6874 28.4187 28.605 28.1875 28.4504C27.9562 28.2959 27.776 28.0763 27.6695 27.8193C27.5631 27.5624 27.5353 27.2796 27.5895 27.0068C27.6438 26.7341 27.7777 26.4835 27.9744 26.2868C28.171 26.0902 28.4216 25.9562 28.6944 25.902C28.9672 25.8477 29.2499 25.8755 29.5069 25.982C29.7639 26.0884 29.9835 26.2687 30.138 26.4999C30.2925 26.7312 30.375 27.0031 30.375 27.2812C30.375 27.6542 30.2268 28.0118 29.9631 28.2756C29.6994 28.5393 29.3417 28.6874 28.9688 28.6874Z" fill="#1FAD90"/>
</g>
</svg>
