<svg width="101" height="131" viewBox="0 0 101 131" fill="none" xmlns="http://www.w3.org/2000/svg">
<path d="M28.4388 46.3595C26.6896 46.3524 25.0138 45.6484 23.7754 44.4002L9.31008 30.1757C8.04241 28.9247 7.31849 27.2161 7.29758 25.4257C7.28723 24.5392 7.44978 23.6594 7.77596 22.8364C8.10213 22.0133 8.58554 21.2633 9.19858 20.6291C9.81163 19.9948 10.5423 19.4888 11.3489 19.1399C12.1555 18.791 13.0222 18.606 13.8995 18.5956C15.6713 18.5744 17.3789 19.2654 18.6466 20.5164L33.1022 34.7801C34.0522 35.7173 34.7043 36.9193 34.9752 38.2327C35.2461 39.5461 35.1235 40.9112 34.623 42.1539C34.1225 43.3965 33.267 44.4603 32.1655 45.2094C31.064 45.9585 29.7665 46.3589 28.4388 46.3595Z" fill="url(#paint0_linear_206_2)"/>
<path d="M7.09936 130.874C5.79132 130.833 4.52383 130.406 3.45426 129.644C2.38469 128.882 1.56017 127.819 1.08306 126.588C0.605955 125.357 0.497287 124.011 0.770549 122.718C1.04381 121.424 1.68697 120.241 2.62016 119.314L54.6061 67.8138C55.2318 67.1937 55.9724 66.7043 56.7854 66.3734C57.5983 66.0424 58.4679 65.8766 59.3443 65.8852C60.2207 65.8939 61.0869 66.0768 61.8933 66.4237C62.6998 66.7706 63.4307 67.2746 64.0444 67.9069C64.6581 68.5392 65.1425 69.2875 65.47 70.1089C65.7975 70.9304 65.9616 71.809 65.9531 72.6946C65.9445 73.5802 65.7634 74.4554 65.4201 75.2703C65.0768 76.0851 64.5781 76.8237 63.9523 77.4438L11.9761 128.954C11.3336 129.59 10.5703 130.088 9.73219 130.418C8.89404 130.748 7.99842 130.903 7.09936 130.874Z" fill="url(#paint1_linear_206_2)"/>
<path d="M21.0508 117.169C22.8006 117.169 24.489 116.517 25.7918 115.337L12.0246 128.905C11.2383 129.693 10.273 130.275 9.21293 130.599L8.97055 130.668L8.77664 130.717H8.55365H8.31127L7.98163 130.766C7.75864 130.766 7.52595 130.766 7.30296 130.766C7.07997 130.766 6.86668 130.766 6.65338 130.766H6.39161H6.28496H5.99411L5.62568 130.688L5.31543 130.59C5.09978 130.528 4.88912 130.449 4.68525 130.355L4.40409 130.237C3.90101 129.993 3.43167 129.683 3.00797 129.316C2.93678 129.265 2.87171 129.206 2.81407 129.14C2.72986 129.076 2.65193 129.003 2.58137 128.924C2.4258 128.774 2.28007 128.614 2.14509 128.444C1.87524 128.11 1.63516 127.753 1.42764 127.376C1.14306 126.838 0.928003 126.265 0.787755 125.672C0.787755 125.584 0.787755 125.496 0.787755 125.417C0.782337 125.339 0.782337 125.26 0.787755 125.182C0.787755 125.064 0.787755 124.957 0.787755 124.839C0.787755 124.722 0.787755 124.389 0.787755 124.153V18.9393C0.787755 18.7042 0.787755 18.4789 0.787755 18.2536C0.787755 18.0282 0.787755 18.0282 0.787755 17.9107C0.782348 17.8291 0.782348 17.7473 0.787755 17.6658C0.787755 17.5874 0.787755 17.509 0.787755 17.4209C0.92481 16.8139 1.13994 16.2276 1.42764 15.6771C1.63938 15.3309 1.87937 15.0032 2.14509 14.6974C2.27757 14.5259 2.42347 14.3654 2.58137 14.2174C2.65193 14.1382 2.72986 14.066 2.81407 14.0019C2.87147 13.9326 2.93652 13.8701 3.00797 13.8158C3.42895 13.4389 3.89466 13.1164 4.39439 12.8557L4.68525 12.7381C4.88889 12.6405 5.09955 12.5587 5.31543 12.4932L5.62568 12.4051L5.99411 12.3169H6.28496H6.39161H6.65338C6.86668 12.3169 7.07997 12.3169 7.30296 12.3169C7.52595 12.3169 7.75864 12.3169 7.98163 12.3169H8.31127H8.55365H8.77664L8.97055 12.3659L9.21293 12.4345C10.2743 12.7561 11.2402 13.3384 12.0246 14.1292L25.7918 27.6974C24.7751 26.774 23.5156 26.1679 22.1654 25.9522C20.8151 25.7366 19.432 25.9207 18.1831 26.4823C16.9342 27.0438 15.8729 27.9588 15.1276 29.1167C14.3822 30.2746 13.9847 31.6258 13.983 33.007V109.988C13.983 110.926 14.1658 111.854 14.521 112.721C14.8762 113.587 15.3968 114.374 16.0531 115.038C16.7094 115.701 17.4886 116.227 18.3461 116.586C19.2036 116.945 20.1227 117.129 21.0508 117.129V117.169Z" fill="#F89623"/>
<path d="M72.8038 84.5266C74.5528 84.5347 76.2282 85.2386 77.4673 86.4859L91.9229 100.75C92.5768 101.362 93.1027 102.101 93.4697 102.922C93.8367 103.743 94.0374 104.63 94.0598 105.53C94.0821 106.431 93.9259 107.327 93.6001 108.166C93.2744 109.004 92.7858 109.769 92.1632 110.414C91.5405 111.058 90.7964 111.571 89.9747 111.92C89.1529 112.27 88.2703 112.45 87.3786 112.45C86.487 112.449 85.6045 112.268 84.7831 111.918C83.9617 111.567 83.2181 111.054 82.596 110.409L68.1404 96.106C67.1904 95.1688 66.5383 93.9668 66.2674 92.6534C65.9966 91.34 66.1192 89.9749 66.6196 88.7322C67.1201 87.4896 67.9757 86.4258 69.0772 85.6767C70.1787 84.9277 71.4761 84.5272 72.8038 84.5266Z" fill="url(#paint2_linear_206_2)"/>
<path d="M94.1436 0.00259249C95.4529 0.0403539 96.7223 0.466802 97.7933 1.22874C98.8644 1.99069 99.6897 3.05439 100.166 4.28719C100.643 5.51999 100.75 6.8673 100.474 8.16107C100.197 9.45485 99.5504 10.6378 98.6131 11.5624L46.6369 63.0723C46.0172 63.721 45.275 64.2376 44.4544 64.5917C43.6338 64.9459 42.7512 65.1302 41.8589 65.134C40.9666 65.1378 40.0826 64.9609 39.259 64.6137C38.4355 64.2666 37.6891 63.7562 37.064 63.1128C36.4389 62.4694 35.9477 61.7059 35.6194 60.8675C35.2911 60.0291 35.1324 59.1327 35.1526 58.2313C35.1728 57.3299 35.3716 56.4417 35.7371 55.6192C36.1027 54.7967 36.6277 54.0565 37.281 53.4423L89.2669 1.96189C89.9057 1.31816 90.6675 0.812493 91.5059 0.475662C92.3443 0.138831 93.2417 -0.0221231 94.1436 0.00259249Z" fill="url(#paint3_linear_206_2)"/>
<path d="M100.62 6.76209V111.947C100.62 112.182 100.62 112.407 100.62 112.633C100.62 112.858 100.62 112.858 100.571 112.975C100.576 113.057 100.576 113.139 100.571 113.22C100.571 113.289 100.571 113.387 100.513 113.465C100.385 114.061 100.172 114.635 99.8827 115.17C99.673 115.545 99.4331 115.902 99.1653 116.238C99.0295 116.404 98.8841 116.561 98.729 116.718L98.4963 116.943L98.3024 117.11C97.8755 117.472 97.4067 117.781 96.9063 118.03L96.6251 118.158C96.4168 118.249 96.2031 118.328 95.9852 118.393L95.6847 118.481C95.5586 118.481 95.4423 118.481 95.3066 118.559H95.0254H94.9284C94.838 118.564 94.7474 118.564 94.657 118.559C94.4407 118.574 94.2237 118.574 94.0074 118.559C93.7814 118.574 93.5547 118.574 93.3287 118.559L92.9894 118.51C92.9121 118.52 92.834 118.52 92.7567 118.51H92.5337H92.3398L92.0974 118.442C91.0374 118.117 90.0721 117.535 89.2858 116.747L75.5186 103.179C76.5352 104.102 77.7947 104.708 79.145 104.924C80.4952 105.14 81.8783 104.956 83.1273 104.394C84.3762 103.832 85.4374 102.917 86.1828 101.76C86.9281 100.602 87.3256 99.2505 87.3274 97.8693V20.8592C87.328 19.4769 86.9316 18.1242 86.1863 16.9651C85.441 15.8059 84.3788 14.8903 83.1286 14.3292C81.8784 13.7681 80.4938 13.5856 79.143 13.804C77.7922 14.0223 76.5331 14.6321 75.5186 15.5593L89.2179 1.96182C89.9991 1.17325 90.967 0.599905 92.0296 0.296422L92.2719 0.21805H92.4658L92.6888 0.169067H92.9215H93.2609C93.4838 0.169067 93.7165 0.169067 93.9395 0.169067C94.1625 0.169067 94.3758 0.169067 94.5891 0.169067H94.8606H94.9575H95.2387L95.6168 0.257236C95.7188 0.283991 95.8191 0.316701 95.9173 0.3552C96.138 0.41131 96.3524 0.490092 96.5572 0.590316C96.6445 0.590316 96.7512 0.658891 96.8384 0.707873C97.3365 0.95695 97.8049 1.26262 98.2345 1.61895C98.3024 1.68752 98.3703 1.7365 98.4284 1.80508C98.5106 1.87511 98.5884 1.95037 98.6611 2.0304C98.8164 2.17751 98.9621 2.33458 99.0974 2.50063C99.3652 2.83603 99.6052 3.19318 99.8148 3.56844C100.103 4.10394 100.315 4.67777 100.445 5.27303L100.503 5.52774C100.509 5.60926 100.509 5.69113 100.503 5.77265C100.503 5.88041 100.503 5.98817 100.552 6.10573C100.6 6.22329 100.62 6.51718 100.62 6.76209Z" fill="#1FAD90"/>
<defs>
<linearGradient id="paint0_linear_206_2" x1="9.85301" y1="21.8879" x2="39.011" y2="48.5263" gradientUnits="userSpaceOnUse">
<stop stop-color="#CC6517"/>
<stop offset="1" stop-color="#F89623"/>
</linearGradient>
<linearGradient id="paint1_linear_206_2" x1="0.622937" y1="98.3788" x2="65.9592" y2="98.3788" gradientUnits="userSpaceOnUse">
<stop stop-color="#CC6517"/>
<stop offset="1" stop-color="#F89623"/>
</linearGradient>
<linearGradient id="paint2_linear_206_2" x1="91.3799" y1="108.998" x2="62.2221" y2="82.3696" gradientUnits="userSpaceOnUse">
<stop stop-color="#178E72"/>
<stop offset="1" stop-color="#1FAD90"/>
</linearGradient>
<linearGradient id="paint3_linear_206_2" x1="101.163" y1="0.0025906" x2="36.3744" y2="62.1156" gradientUnits="userSpaceOnUse">
<stop stop-color="#178E72"/>
<stop offset="1" stop-color="#1FAD90"/>
</linearGradient>
</defs>
</svg>
