<svg width="42" height="50" viewBox="0 0 42 50" fill="none" xmlns="http://www.w3.org/2000/svg">
<path d="M40.8812 1.25314C40.6936 1.03249 40.4239 0.907593 40.1424 0.907593H1.04348C0.762028 0.907593 0.4923 1.03249 0.304662 1.25314C0.113115 1.47379 0.0192968 1.76938 0.0466608 2.06913L3.56877 44.0883C3.60395 44.5296 3.89323 44.896 4.29195 45.0209L20.3154 49.8918C20.4014 49.921 20.4952 49.9335 20.589 49.9335C20.6829 49.9335 20.7728 49.921 20.8627 49.8918L36.8978 45.0209C37.2966 44.896 37.5819 44.5296 37.621 44.0883L41.1392 2.06913C41.1666 1.76938 41.0728 1.47379 40.8812 1.25314ZM32.4493 15.7411H13.623L14.0725 21.1657H31.9958L30.6511 37.1982L20.5851 40.4372L20.4874 40.4039L10.5387 37.1941L9.99534 30.662H14.87L15.0811 33.1974L20.6438 34.438L26.1048 33.1974L26.6872 26.3364H9.6318L8.30661 10.5579H32.8832L32.4493 15.7411Z" fill="black"/>
</svg>
