<svg width="65" height="34" viewBox="0 0 65 34" fill="none" xmlns="http://www.w3.org/2000/svg">
<path d="M16.2423 6.999H4.90241L0 34H5.82286L7.04917 27.001H12.5662C17.7744 27.3337 23.6002 22.6667 23.6002 14.6665C23.6002 9.99945 21.1475 7.33169 16.2451 6.999H16.2423ZM11.9516 22.0013H8.27263L9.80481 12.0018H13.7896C15.9335 12.0018 17.4686 13.003 17.4686 15.0023C17.1627 20.6705 14.7101 21.6686 11.9516 22.0013ZM36.7752 6.999H31.2582L32.4845 0H26.6617L21.7592 27.001H27.5821L30.3406 12.0018H34.9371C37.0839 12.0018 37.0839 13.003 36.7752 14.6696L34.6313 27.0041H40.76L42.9039 13.3357C43.5156 10.0026 41.6776 7.33169 36.7752 6.999ZM57.3081 6.999H45.9683L41.0659 34H46.8887L48.115 27.001H53.632C58.8432 27.3337 64.666 22.6667 64.666 14.6665C64.666 9.99945 62.2105 7.33169 57.3081 6.999ZM53.0174 22.0013H49.3385L50.8707 12.0018H54.8555C57.0022 12.0018 58.5344 13.003 58.5344 15.0023C58.2286 20.6705 55.7759 21.6686 53.0174 22.0013Z" fill="black"/>
</svg>
