<svg width="63" height="61" viewBox="0 0 63 61" fill="none" xmlns="http://www.w3.org/2000/svg">
<path d="M31.4995 61H31.487C26.5719 60.9981 21.6985 59.8657 17.3313 57.7172L3.86925 60.7059C3.04781 60.8879 2.18745 60.6472 1.58952 60.0679C0.991585 59.4885 0.739242 58.6507 0.919968 57.8476L3.83704 44.9069C1.33092 40.3899 0.00769043 35.4427 0.000480652 30.5373C0 30.5204 0 30.5035 0 30.4871C0.00336457 22.358 3.29727 14.7022 9.27418 8.93034C15.2376 3.17162 23.1304 0 31.499 0C39.8864 0.00328374 47.7667 3.17771 53.6907 8.93785C59.697 14.7782 63.0029 22.4401 63 30.5115C62.9976 36.6113 61.1235 42.5065 57.5807 47.5592C56.813 48.6541 55.2817 48.9342 54.1599 48.185C53.0385 47.4358 52.7511 45.9413 53.5187 44.8464C56.4992 40.5954 58.0757 35.6379 58.0781 30.5096C58.0805 23.725 55.2889 17.2724 50.2171 12.3407C45.2216 7.48315 38.5738 4.80644 31.4981 4.80363C16.8656 4.80363 4.95264 16.3014 4.92188 30.4439C4.92188 30.4594 4.92236 30.4744 4.92236 30.4894C4.92043 34.8671 6.18214 39.3058 8.5705 43.3256C8.87956 43.8458 8.97762 44.4598 8.84496 45.0467L6.56042 55.1817L17.1227 52.8366C17.7058 52.7076 18.3172 52.7897 18.843 53.0679C22.7021 55.1127 27.0746 56.1945 31.488 56.1964H31.499C36.2983 56.1964 41.0116 54.9298 45.1289 52.5341C46.2959 51.8543 47.8066 52.2273 48.5026 53.3667C49.1986 54.5062 48.8169 55.9801 47.6494 56.6598C42.7703 59.4989 37.1856 61 31.499 61H31.4995ZM24.5493 18.2801C24.0095 17.1129 23.4414 17.0731 22.9281 17.0529H21.5471C21.0665 17.0529 20.2859 17.2283 19.626 17.9296C18.9656 18.631 17.104 20.3263 17.104 23.7747C17.104 27.2231 19.6861 30.5556 20.0461 31.0238C20.4066 31.491 25.0309 38.7935 32.3541 41.603C38.4406 43.9377 39.6793 43.4733 41.0001 43.356C42.3214 43.2397 45.2635 41.6612 45.8633 40.0245C46.4641 38.3882 46.4641 36.9856 46.2839 36.6924C46.1041 36.4006 45.6235 36.2252 44.903 35.8748C44.182 35.5243 40.6507 33.7994 39.9902 33.5658C39.3298 33.3322 38.8496 33.2154 38.369 33.9172C37.8883 34.618 36.4733 36.2388 36.0527 36.706C35.6326 37.1747 35.2121 37.2328 34.4916 36.8824C33.7711 36.5306 31.474 35.7777 28.7214 33.3904C26.5791 31.5323 25.0929 29.1633 24.6723 28.4615C24.2518 27.7607 24.6272 27.3807 24.9886 27.0312C25.3121 26.7174 25.75 26.2881 26.1105 25.8791C26.47 25.47 26.5728 25.1778 26.8127 24.7101C27.053 24.2424 26.9328 23.8333 26.7531 23.4824C26.5728 23.132 25.1895 19.6658 24.5488 18.2801" fill="#1FAD90"/>
</svg>
