<svg width="43" height="46" viewBox="0 0 43 46" fill="none" xmlns="http://www.w3.org/2000/svg">
<path d="M39.3843 0.64447H2.68945C1.21572 0.64447 0.0195312 1.91841 0.0195312 3.48794V42.5638C0.0195312 44.1333 1.21572 45.4072 2.68945 45.4072H39.3804C40.8541 45.4072 42.0503 44.1333 42.0503 42.5679V3.48794C42.0503 1.91841 40.8541 0.64447 39.3843 0.64447ZM23.0364 34.9451C23.0364 39.204 20.6909 41.1441 17.2665 41.1441C14.1705 41.1441 11.9384 38.9334 11.0276 36.881L14.1744 34.8535C14.7803 35.9984 15.7029 36.881 17.032 36.881C18.3024 36.881 19.0334 36.3523 19.0334 34.2956V20.8943H23.0364V34.9451ZM31.7185 41.1441C28.1729 41.1441 26.1597 39.2415 25.0378 36.881L28.04 34.7494C28.857 36.1732 29.7483 37.5346 31.6325 37.5346C33.2157 37.5346 34.0444 36.6936 34.0444 35.5279C34.0444 34.1374 33.1844 33.642 31.4449 32.8302L30.491 32.393C27.7351 31.1441 25.9017 29.5787 25.9017 26.2648C25.9017 23.2174 28.0869 20.8943 31.4957 20.8943C33.9232 20.8943 35.6667 21.7935 36.9254 24.1499L33.9545 26.1857C33.2978 24.9326 32.5941 24.4413 31.4957 24.4413C30.3777 24.4413 29.6701 25.199 29.6701 26.1857C29.6701 27.4055 30.3777 27.8968 32.0156 28.6545L32.9694 29.0916C36.2179 30.5696 38.0473 32.0808 38.0473 35.478C38.0473 39.1374 35.3462 41.1441 31.7185 41.1441Z" fill="black"/>
</svg>
