<svg width="34" height="55" viewBox="0 0 34 55" fill="none" xmlns="http://www.w3.org/2000/svg">
<path d="M16.8167 27.6178C16.8167 15.7794 33.4961 15.7794 33.4961 27.6178C33.4961 39.4563 16.8167 39.4563 16.8167 27.6178ZM0.137306 45.3814C0.137306 40.4721 3.8666 36.5004 8.47622 36.5004H16.8151V45.3814C16.8151 57.2199 0.135742 57.2199 0.135742 45.3814H0.137306ZM16.8167 0.973345V18.7369H25.1556C36.2716 18.7369 36.2716 0.973345 25.1556 0.973345H16.8167ZM0.137306 9.85429C0.137306 14.7635 3.8666 18.7352 8.47622 18.7352H16.8151V0.97168H8.47622C3.8666 0.97168 0.137306 4.94337 0.137306 9.85262V9.85429ZM0.137306 27.6178C0.137306 32.5271 3.8666 36.5004 8.47622 36.5004H16.8151V18.7352H8.47622C3.8666 18.7352 0.137306 22.7086 0.137306 27.6178Z" fill="black"/>
</svg>
