<svg width="60" height="58" viewBox="0 0 60 58" fill="none" xmlns="http://www.w3.org/2000/svg">
<g clip-path="url(#clip0_501_41)">
<path d="M52.9538 21.9484H38.702V15.9947L26.4862 2.10281H4.0905C1.85088 2.10281 0.0185547 3.88886 0.0185547 6.07192V51.7167C0.0185547 53.8997 1.85088 55.6858 4.0905 55.6858H34.6301C36.8696 55.6858 38.702 53.8997 38.702 51.7167V47.7476H52.9538C56.415 47.7476 59.0617 45.1677 59.0617 41.7939V27.902C59.0617 24.5282 56.415 21.9484 52.9538 21.9484ZM26.4862 5.07959L36.0553 15.9947H28.5222C27.5042 15.9947 26.4862 15.0025 26.4862 14.0101V5.07959ZM36.6661 51.7167C36.6661 52.7089 35.8517 53.7013 34.6301 53.7013H4.0905C3.07257 53.7013 2.05453 52.9074 2.05453 51.7167V6.07192C2.05453 5.0797 2.86892 4.08737 4.0905 4.08737H24.4502V14.0101C24.4502 16.1932 26.2825 17.9793 28.5222 17.9793H36.6661V21.9484H18.3423C14.8811 21.9484 12.2344 24.5282 12.2344 27.902V41.7939C12.2344 45.1677 14.8811 47.7476 18.3423 47.7476H36.6661V51.7167ZM57.0258 41.7939C57.0258 43.9769 55.1933 45.763 52.9538 45.763H18.3423C16.1027 45.763 14.2704 43.9769 14.2704 41.7939V27.902C14.2704 25.719 16.1027 23.9329 18.3423 23.9329H52.9538C55.1933 23.9329 57.0258 25.719 57.0258 27.902V41.7939Z" fill="black"/>
<path d="M16.5302 24.0983H54.558L57.0598 26.7627V43.2823L53.5572 45.9468H17.5309L14.0283 42.7494L14.5287 27.2956L16.5302 24.0983Z" fill="black" stroke="black"/>
<path d="M22.4147 29.8866H24.4507C25.6723 29.8866 26.4867 30.8788 26.4867 31.8711H28.5226C28.5226 29.6882 26.6903 27.902 24.4507 27.902H22.4147C20.1751 27.902 18.3428 29.6882 18.3428 31.8711C18.3428 34.0541 20.1751 35.8403 22.4147 35.8403H24.4507C25.6723 35.8403 26.4867 36.6341 26.4867 37.8248C26.4867 39.0155 25.6723 39.8094 24.4507 39.8094H22.4147C21.1931 39.8094 20.3787 38.8171 20.3787 37.8248H18.3428C18.3428 40.0078 20.1751 41.7939 22.4147 41.7939H24.4507C26.6903 41.7939 28.5226 40.0078 28.5226 37.8248C28.5226 35.6419 26.6903 33.8557 24.4507 33.8557H22.4147C21.1931 33.8557 20.3787 33.0619 20.3787 31.8711C20.3787 30.6804 21.1931 29.8866 22.4147 29.8866Z" fill="white"/>
<path d="M40.7385 37.8248V31.8711C40.7385 29.6882 38.906 27.902 36.6665 27.902H34.6305C32.391 27.902 30.5586 29.6882 30.5586 31.8711V37.8248C30.5586 40.0078 32.391 41.7939 34.6305 41.7939H36.6665C37.0737 41.7939 37.6844 41.7939 38.0917 41.5955L39.9241 43.3816L41.3493 41.9923L39.7205 40.4047C40.3313 39.8094 40.7385 38.8171 40.7385 37.8248ZM38.7025 37.8248C38.7025 38.2217 38.4989 38.6186 38.2953 39.0155L35.445 36.2373L34.0198 37.6265L36.2593 39.8095H34.6305C33.409 39.8095 32.5946 39.0157 32.5946 37.8249V31.8711C32.5946 30.6804 33.409 29.8866 34.6305 29.8866H36.6665C37.8881 29.8866 38.7025 30.6804 38.7025 31.8711V37.8248Z" fill="white"/>
<path d="M44.8104 27.902H42.7744V41.7939H52.9543V39.8094H44.8104V27.902Z" fill="white"/>
<path d="M3.02026 4.38138H24.536L27.0378 4.91427L32.0415 11.3089L36.5448 15.5721L29.5397 18.2365H32.0415H36.5448V21.9667H17.0305L13.5279 24.0983L12.5272 26.2299V43.2823L14.5287 46.4797L17.5309 48.0783L36.5448 47.5455V52.3415L35.0437 53.4072L4.021 53.9401L2.01953 51.8086V5.44716L3.02026 4.38138Z" fill="black"/>
<path d="M24.536 4.38138H3.02026L2.01953 5.44716V51.8086L4.021 53.9401L35.0437 53.4072L36.5448 52.3415V47.5455L17.5309 48.0783L14.5287 46.4797L12.5272 43.2823V26.2299L13.5279 24.0983L17.0305 21.9667H36.5448V18.2365H32.0415H29.5397L36.5448 15.5721L32.0415 11.3089L27.0378 4.91427M24.536 4.38138C24.536 4.38138 27.0378 7.04583 27.0378 4.91427M24.536 4.38138L27.0378 4.91427" stroke="black"/>
</g>
<defs>
<clipPath id="clip0_501_41">
<rect width="59.0432" height="57.5521" fill="white" transform="translate(0.0185547 0.118256)"/>
</clipPath>
</defs>
</svg>
