<svg width="45" height="48" viewBox="0 0 45 48" fill="none" xmlns="http://www.w3.org/2000/svg">
<path d="M27.7982 0.981699C27.6927 0.998351 27.5871 1.03166 27.4855 1.08162C26.6255 1.5354 25.6482 2.88428 25.4606 3.15073C25.4488 3.16738 25.4371 3.18403 25.4293 3.20069C24.4637 4.74107 23.9477 6.54374 23.9282 8.42134C23.9165 9.8285 24.1745 11.2232 24.6983 12.5679C25.9179 15.6861 28.451 18.2673 31.4649 19.4746C31.5666 19.5121 31.6643 19.5496 31.8402 19.6162C31.8559 19.6245 32.0044 19.6745 32.0279 19.6786L32.1373 19.7203C32.2937 19.7744 32.454 19.8285 32.6103 19.8618C33.4039 20.0325 34.1779 20.1283 34.905 20.1532C35.0301 20.1532 35.1551 20.1574 35.2802 20.1574C40.7647 20.1574 42.8913 16.0358 43.5988 14.662C43.6692 14.5288 43.72 14.4205 43.7669 14.3539C43.7669 14.3497 43.7669 14.3497 43.7708 14.3456C44.0796 13.8585 43.9624 13.1965 43.505 12.8635C43.0515 12.5346 42.43 12.6595 42.1173 13.1466H42.1134C40.6514 15.4405 38.1495 16.1358 34.6821 15.2198C34.4241 15.1532 34.1427 15.0492 33.8925 14.9492C33.5641 14.8243 33.2358 14.6786 32.9309 14.5204C32.325 14.1999 31.7542 13.8168 31.2382 13.3922C28.1891 10.8735 26.9968 5.63199 28.7794 2.60535C29.0178 2.20152 28.9748 1.67695 28.6738 1.32308C28.4471 1.05664 28.1188 0.935903 27.7982 0.981699ZM18.9323 3.10493C18.7056 3.10077 18.475 3.17987 18.2873 3.3464C16.7745 4.65781 15.2265 6.80602 15.1601 6.89345C15.1522 6.9101 15.1444 6.92259 15.1327 6.93924C12.3963 11.1815 12.1891 17.2182 14.6089 22.3181C14.9881 23.1258 15.4181 23.896 15.8754 24.6037L16.0122 24.8119C16.3992 25.4155 16.8332 26.0983 17.3882 26.6312C17.5798 26.8643 17.787 27.0891 17.9902 27.3056L18.088 27.4139L18.1701 27.5013C18.3773 27.7136 18.5883 27.9301 18.8073 28.1383H18.8112C18.8268 28.1632 18.8503 28.1799 18.8698 28.2007C19.1161 28.4339 19.3663 28.6545 19.6985 28.9334L19.7884 29.0042C20.0464 29.2249 20.3084 29.433 20.5781 29.637C20.6054 29.6578 20.6328 29.6786 20.6602 29.6995C20.754 29.7661 20.8478 29.8285 20.9416 29.8993L21.0354 29.9659L21.1449 30.0408C21.3443 30.1824 21.5397 30.3115 21.8173 30.4821C21.9971 30.5987 22.1886 30.7153 22.3137 30.7819C22.3685 30.8152 22.4271 30.8485 22.5639 30.9276L22.8688 31.0983C22.8845 31.1066 22.9548 31.1399 22.9705 31.1483C23.1698 31.2565 23.377 31.3606 23.5842 31.4605L23.9008 31.6104C24.108 31.7061 24.3191 31.7977 24.5771 31.9018L24.6944 31.9476C24.7022 31.9559 24.7999 31.9934 24.8077 31.9976C24.9954 32.0683 25.1869 32.1391 25.3785 32.2057L25.8163 32.3598C26.0352 32.4389 26.2893 32.5304 26.5668 32.5804C27.9311 32.8219 29.2563 32.9468 30.5111 32.9468C30.6597 32.9468 30.8082 32.9426 30.9529 32.9426C42 32.6845 44.8732 22.6886 44.9006 22.5887C45.0374 22.085 44.8146 21.5479 44.3689 21.3231C43.9233 21.0983 43.3916 21.2565 43.1141 21.6895C40.3152 26.0442 35.0222 27.8843 29.6316 26.3689C29.3814 26.3023 29.139 26.2274 28.838 26.1233C28.7872 26.1066 28.7442 26.09 28.6621 26.0567C28.4862 25.9984 28.3142 25.9359 28.1188 25.8568L27.8412 25.7444C27.6809 25.6778 27.5207 25.6112 27.3252 25.5196L27.1962 25.4572C26.9577 25.3489 26.7271 25.2282 26.5199 25.1199L25.9492 24.8035C25.8202 24.7369 25.7068 24.662 25.5309 24.5496L25.4332 24.4913L25.3355 24.4289C25.1908 24.3373 25.0462 24.2415 24.9133 24.1416L24.8195 24.0791C24.8116 24.075 24.7335 24.0167 24.7256 24.0084C24.6084 23.9293 24.495 23.8502 24.3856 23.7752C24.1432 23.592 23.9047 23.4005 23.6272 23.1674L23.5177 23.0716C20.9377 20.8776 19.0301 17.9467 18.1349 14.8035C17.3022 11.9184 17.9199 8.14241 19.7884 4.7036C20.0308 4.25814 19.9409 3.69194 19.5695 3.35889C19.3858 3.19236 19.1591 3.10493 18.9323 3.10493ZM7.92038 6.30227C7.68193 6.30227 7.43956 6.39386 7.24801 6.57704C5.33646 8.40469 3.90573 10.7735 3.74936 11.0442C-0.339567 17.3847 0.450074 27.239 3.25681 33.2632C3.31154 33.3881 3.37018 33.5088 3.42881 33.6295L3.46791 33.6961C3.51872 33.8169 3.57736 33.9418 3.59691 33.9667C3.62818 34.0458 3.67509 34.1333 3.69463 34.1583C3.74154 34.2623 3.78845 34.3539 3.87445 34.5121L4.195 35.0991C4.24191 35.1782 4.28882 35.2615 4.30446 35.2906C4.367 35.3989 4.43346 35.5113 4.49991 35.6237L4.65628 35.8901C4.70319 35.9692 4.75009 36.04 4.78137 36.0817C4.93773 36.3398 5.0941 36.5979 5.2661 36.8435C5.27391 36.856 5.28173 36.8643 5.28955 36.8727L5.3521 36.9643C5.49282 37.1807 5.63746 37.3889 5.76646 37.5596L6.33719 38.3298C6.34501 38.3381 6.40756 38.4172 6.41147 38.4255L6.49356 38.5255C6.66556 38.7503 6.84929 38.9751 7.03301 39.1916C7.06038 39.2249 7.08774 39.254 7.11511 39.2873C7.29101 39.4913 7.47084 39.6953 7.65847 39.9076L7.83829 40.0908C7.98684 40.2573 8.13538 40.4197 8.29175 40.5737C8.29175 40.5779 8.36602 40.6529 8.36602 40.6529L8.52238 40.8069C8.71002 40.9984 8.90548 41.1899 9.05402 41.3231C9.06184 41.3356 9.20257 41.4647 9.2143 41.473C9.39803 41.6479 9.58175 41.8144 9.76939 41.9767L10.7271 42.7844C10.8874 42.9093 11.0516 43.0342 11.2392 43.1799C11.3018 43.2299 11.3682 43.2798 11.4347 43.3256C11.462 43.3506 11.4933 43.3756 11.5129 43.3881L12.2321 43.9001C12.494 44.0833 12.756 44.254 13.0765 44.458L13.2485 44.5621C13.4479 44.687 13.6511 44.8119 13.8427 44.9201C13.956 44.9867 14.0694 45.045 14.1671 45.0992C14.304 45.1783 14.4525 45.2657 14.6792 45.3822C14.6988 45.3947 14.8591 45.478 14.8786 45.4863C15.1053 45.6071 15.336 45.7195 15.6252 45.8569C15.6252 45.861 15.7191 45.9068 15.7191 45.9068C15.9849 46.0275 16.2429 46.1441 16.583 46.2898C16.6377 46.3148 16.6924 46.3356 16.7042 46.3398C16.9465 46.4397 17.2006 46.5396 17.4078 46.6187C17.4273 46.627 17.5329 46.6728 17.5524 46.6812C17.83 46.7811 18.1036 46.8768 18.4554 46.9934C18.5141 47.0142 18.5766 47.035 18.5844 47.035L18.7838 47.1017C19.0262 47.1808 19.2685 47.264 19.5304 47.3181C21.3912 47.6803 23.2089 47.8677 24.9289 47.8677H24.9328C39.2675 47.8677 43.8334 35.5821 43.8803 35.4572C44.0562 34.9618 43.8646 34.4039 43.4268 34.1458C42.9968 33.8918 42.4495 34.0125 42.1446 34.433C38.4662 39.5912 31.5275 41.5063 23.5842 39.5621C23.3926 39.5121 23.1972 39.4538 23.0056 39.3914L22.6304 39.2707C22.3763 39.1874 22.1222 39.0958 21.8759 39.0042C21.872 39.0042 21.7586 38.9584 21.7586 38.9584C21.5397 38.8793 21.3208 38.7877 21.1293 38.7086L20.9104 38.617C20.668 38.513 20.4256 38.4047 20.1911 38.2923L20.0543 38.2299C19.8432 38.1258 19.6399 38.0259 19.4366 37.9176C19.421 37.9093 19.2607 37.826 19.2451 37.8219C19.1043 37.7469 18.9636 37.6678 18.7838 37.5638L17.9668 37.0975C17.8847 37.0392 17.7987 36.9851 17.7166 36.9393C17.4703 36.7769 17.2162 36.6145 16.9661 36.4439C16.9074 36.4064 16.8566 36.3648 16.7589 36.294C16.5869 36.1774 16.4188 36.0567 16.1725 35.8735L16.0748 35.7986C15.9067 35.6737 15.7425 35.5404 15.6057 35.4322C15.5197 35.3656 15.4337 35.2906 15.293 35.1782C15.1679 35.0742 15.0428 34.9742 14.9255 34.8743L14.7066 34.6828C14.5229 34.5246 14.3509 34.3581 14.171 34.1957C14.1476 34.1707 14.128 34.1541 14.1007 34.1333C13.9013 33.9376 13.698 33.7419 13.4557 33.4963L12.7481 32.7469C12.5761 32.5596 12.4041 32.3681 12.2087 32.1391C12.0289 31.9268 11.8569 31.7145 11.6262 31.423L11.204 30.8735C11.1532 30.7944 11.0985 30.7153 11.032 30.632C10.8874 30.4239 10.7428 30.2199 10.5981 30.0034C6.70465 24.2915 5.68828 12.3681 8.72175 8.00086C9.02666 7.56372 8.97193 6.94757 8.58884 6.57704C8.4012 6.39386 8.15884 6.30227 7.92038 6.30227Z" fill="black"/>
</svg>
