<svg width="51" height="54" viewBox="0 0 51 54" fill="none" xmlns="http://www.w3.org/2000/svg">
<g clip-path="url(#clip0_501_12)">
<path d="M49.6514 12.7668C49.667 12.8367 49.6764 12.915 49.6764 12.9833V24.4238C49.6764 24.7185 49.5294 24.9966 49.2855 25.1432L40.2695 30.6769V41.6311C40.2695 41.9259 40.1225 42.204 39.8786 42.3505L21.0586 53.8859C21.0179 53.9126 20.9694 53.9292 20.9194 53.9459C20.9038 53.9542 20.8866 53.9625 20.8709 53.9725C20.7411 54.0075 20.602 54.0075 20.4722 53.9725C20.4472 53.9642 20.4315 53.9559 20.4159 53.9459C20.3674 53.9292 20.3268 53.9109 20.2861 53.8859L1.47392 42.3505C1.23 42.2023 1.0752 41.9259 1.0752 41.6311V7.31134C1.0752 7.2414 1.09083 7.16313 1.10803 7.09486C1.11585 7.06821 1.12367 7.05156 1.13305 7.02491C1.14869 6.98162 1.16589 6.93832 1.18152 6.89502C1.18934 6.86838 1.21436 6.85172 1.23 6.82508C1.25501 6.79011 1.27847 6.75514 1.30349 6.72017C1.32851 6.70351 1.35196 6.6852 1.37698 6.66022C1.40982 6.63357 1.43327 6.60859 1.46611 6.59028L10.873 0.821744C11.1169 0.673534 11.4187 0.673534 11.6548 0.821744L21.0695 6.59028C21.1023 6.60693 21.1258 6.63357 21.1508 6.66022C21.1758 6.67687 21.2071 6.70351 21.2321 6.72017C21.2571 6.75514 21.2728 6.78012 21.2978 6.82508C21.3134 6.84173 21.3385 6.86838 21.3541 6.89502C21.3697 6.93832 21.3869 6.98162 21.4026 7.02491C21.4104 7.05156 21.4276 7.06821 21.4276 7.09486C21.4526 7.1648 21.4604 7.23307 21.4604 7.31134V28.7435L29.2943 23.9392V12.985C29.2943 12.9067 29.3099 12.8367 29.3271 12.7685C29.3349 12.7418 29.3428 12.7168 29.3521 12.6985C29.3678 12.6552 29.385 12.6119 29.4006 12.5686C29.4162 12.5337 29.4413 12.517 29.4569 12.4904C29.4819 12.4554 29.4976 12.4204 29.5226 12.3954C29.5476 12.3705 29.5789 12.3521 29.6039 12.3355C29.6289 12.3088 29.6524 12.2839 29.6852 12.2656L39.0999 6.49702C39.336 6.34048 39.6378 6.34048 39.8817 6.49702L49.2886 12.2656C49.3214 12.2822 49.3449 12.3088 49.3777 12.3355C49.4027 12.3521 49.4262 12.3705 49.4512 12.3954C49.4762 12.4204 49.4997 12.4554 49.5247 12.4904C49.5403 12.517 49.5654 12.5337 49.5732 12.5686C49.5982 12.6119 49.606 12.6552 49.6216 12.6985C49.6373 12.7152 49.6467 12.7418 49.6545 12.7685L49.6514 12.7668ZM48.1033 23.9375V14.4321L44.8134 16.4437L40.2695 19.2364V28.7418L48.1033 23.9375ZM38.7058 41.1448V31.6294L34.226 34.3438L21.4557 42.1157V51.7177L38.7058 41.1448ZM2.63571 8.75847V41.1448L19.8843 51.7177V42.1157L10.8683 36.6769C10.8355 36.6602 10.812 36.6336 10.787 36.607C10.762 36.5903 10.7307 36.572 10.7135 36.547H10.7057C10.6807 36.5204 10.665 36.4871 10.64 36.4604C10.6244 36.4338 10.5994 36.4088 10.5837 36.3738C10.5681 36.3472 10.5509 36.3039 10.5431 36.2689C10.5274 36.2339 10.5102 36.209 10.5024 36.174C10.4946 36.139 10.4868 36.0957 10.4868 36.0524C10.4789 36.0174 10.4711 35.9925 10.4711 35.9575V13.5628L5.92718 10.7701L2.63571 8.75847ZM11.2608 2.50534L3.42692 7.30968L11.2608 12.114L19.0946 7.30968L11.2608 2.50534ZM15.3403 32.4987L19.8843 29.706V8.76014L16.5944 10.7718L12.0426 13.5645V34.5104L15.3403 32.4987ZM39.4877 8.17729L31.6444 12.9816L39.4877 17.786L47.3215 12.9816L39.4877 8.17729ZM38.7058 19.2364L30.8626 14.4321V23.9375L35.4066 26.7302L38.7043 28.7418L38.7058 19.2364ZM20.6677 40.6686L37.9084 30.1906L30.0824 25.3863L12.8494 35.9508L20.6677 40.6686Z" fill="black"/>
<path d="M21.6475 41.9458V42.5802V51.5935L38.6812 40.677V31.6468L21.6475 41.9458Z" fill="black" stroke="black"/>
<path d="M13.1309 36.2362L20.5832 40.677L38.1492 29.8923L30.1647 25.4516L12.5986 35.6019L13.1309 36.2362Z" fill="black"/>
<path d="M30.697 14.6669V24.1828L38.6815 28.6235V19.1076L30.697 14.6669Z" fill="black"/>
<path d="M31.7616 12.7637L39.7462 8.32297L47.1984 12.7637L39.2138 17.8389L31.7616 12.7637Z" fill="black"/>
<path d="M40.2785 19.1076V28.6235L48.263 23.5484V14.0325L40.2785 19.1076Z" fill="black"/>
<path d="M13.1309 36.2362L20.5832 40.677L38.1492 29.8923L30.1647 25.4516L12.5986 35.6019L13.1309 36.2362Z" stroke="black"/>
<path d="M30.697 14.6669V24.1828L38.6815 28.6235V19.1076L30.697 14.6669Z" stroke="black"/>
<path d="M31.7616 12.7637L39.7462 8.32297L47.1984 12.7637L39.2138 17.8389L31.7616 12.7637Z" stroke="black"/>
<path d="M40.2785 19.1076V28.6235L48.263 23.5484V14.0325L40.2785 19.1076Z" stroke="black"/>
<path d="M32.2941 12.7637H31.7618H31.2295" stroke="black"/>
<path d="M10.469 13.3981V36.2362L20.0505 41.9458L19.5182 52.0961L1.95215 40.677L2.48445 8.95736L3.54906 7.05418L11.0013 2.61343L18.4536 7.05418L20.0505 8.95736V29.8923L12.0659 34.3331V13.3981H10.469Z" fill="black" stroke="black"/>
</g>
<defs>
<clipPath id="clip0_501_12">
<rect width="50.0366" height="53.289" fill="white" transform="translate(0.355469 0.710251)"/>
</clipPath>
</defs>
</svg>
