<svg xmlns="http://www.w3.org/2000/svg" width="152" height="137" viewBox="0 0 152 137" fill="none">
  <path
    d="M1.55115 135.31L0 129.776H0.694785L1.87969 134.284H1.93894L3.14538 129.776H3.91557L5.12202 134.284H5.18127L6.36079 129.776H7.06096L5.50981 135.31H4.80425L3.55472 130.901H3.50624L2.25671 135.31H1.55115Z"
    fill="white" />
  <path
    d="M10.3516 135.31V129.776H13.7716V130.37H11.0356V132.243H13.5939V132.837H11.0356V134.715H13.8147V135.31H10.3516Z"
    fill="white" />
  <path
    d="M17.4512 135.31V129.776H19.4332C19.7699 129.764 20.1043 129.833 20.408 129.975C20.6471 130.092 20.8456 130.275 20.979 130.502C21.1048 130.729 21.1696 130.984 21.1675 131.243C21.1748 131.447 21.1304 131.65 21.0382 131.832C20.9582 131.979 20.8438 132.105 20.7043 132.201C20.5642 132.288 20.4118 132.356 20.2519 132.401V132.453C20.4446 132.465 20.6306 132.526 20.7904 132.632C20.9725 132.749 21.1223 132.908 21.2267 133.095C21.3485 133.325 21.4121 133.58 21.4121 133.839C21.4121 134.098 21.3485 134.354 21.2267 134.584C21.085 134.817 20.8722 135.001 20.6181 135.11C20.278 135.251 19.9103 135.318 19.5409 135.305L17.4512 135.31ZM18.1352 132.211H19.3901C19.5766 132.21 19.7605 132.169 19.9287 132.09C20.0913 132.017 20.2294 131.9 20.3273 131.754C20.4419 131.582 20.4937 131.377 20.4741 131.172C20.4545 130.968 20.3648 130.776 20.2195 130.628C19.9898 130.44 19.6941 130.348 19.3955 130.37H18.1352V132.211ZM18.1352 134.715H19.4978C19.8418 134.751 20.1872 134.661 20.4673 134.463C20.5573 134.385 20.6293 134.29 20.6785 134.183C20.7277 134.075 20.753 133.959 20.7527 133.842C20.7554 133.657 20.705 133.475 20.6073 133.316C20.5055 133.153 20.3603 133.02 20.1872 132.932C19.9892 132.833 19.7688 132.784 19.5463 132.79H18.1352V134.715Z"
    fill="white" />
  <path
    d="M32.8168 135.31H31.0664V129.776H32.8976C33.3881 129.761 33.8735 129.876 34.3034 130.107C34.6966 130.326 35.0109 130.659 35.2028 131.059C35.4232 131.52 35.5302 132.024 35.5152 132.532C35.5301 133.045 35.4232 133.555 35.2028 134.021C35.0043 134.425 34.6826 134.76 34.2818 134.978C33.8313 135.211 33.3264 135.326 32.8168 135.31ZM31.7396 134.715H32.7576C33.1626 134.732 33.5647 134.641 33.9209 134.452C34.226 134.279 34.4672 134.015 34.6104 133.7C34.9081 132.954 34.9081 132.126 34.6104 131.38C34.4711 131.069 34.2357 130.807 33.9371 130.633C33.5982 130.45 33.2149 130.359 32.8276 130.37H31.7773L31.7396 134.715Z"
    fill="white" />
  <path d="M39.1074 135.31V129.776H42.549V130.37H39.7914V132.243H42.3498V132.837H39.7914V134.715H42.549V135.31H39.1074Z"
    fill="white" />
  <path
    d="M51.0694 135.31H50.3477L52.4266 129.776H53.1376L55.2165 135.31H54.4948L52.7821 130.654L51.0694 135.31ZM51.3333 133.148H54.2309V133.742H51.3333V133.148Z"
    fill="white" />
  <path d="M58.5391 135.31V129.776H59.2446V134.715H61.8783V135.31H58.5391Z" fill="white" />
  <path d="M64.2969 130.37V129.776H68.5464V130.37H66.7852V135.31H66.0958V130.37H64.2969Z" fill="white" />
  <path
    d="M71.6323 135.31H70.916L72.995 129.776H73.7059L75.7849 135.31H75.0632L73.372 130.654H73.3289L71.6323 135.31ZM71.9016 133.148H74.7993V133.742H71.9016V133.148Z"
    fill="white" />
  <path d="M84.4086 129.776V135.31H83.7246V129.776H84.4086Z" fill="white" />
  <path
    d="M92.7126 129.776V135.31H92.0447L88.9586 130.991H88.9047V135.336H88.2207V129.776H88.867L91.9639 134.131H92.0178V129.776H92.7126Z"
    fill="white" />
  <path
    d="M99.6395 131.159C99.6247 131.03 99.5808 130.907 99.511 130.796C99.4411 130.686 99.347 130.593 99.2356 130.523C98.9741 130.364 98.6704 130.286 98.3631 130.296C98.1379 130.293 97.9144 130.334 97.706 130.417C97.5327 130.485 97.3818 130.598 97.2697 130.744C97.1664 130.881 97.1116 131.047 97.1135 131.217C97.1104 131.351 97.1479 131.483 97.2212 131.596C97.2972 131.701 97.3943 131.791 97.5067 131.859C97.6185 131.927 97.7377 131.984 97.8622 132.027C97.9914 132.069 98.1045 132.106 98.2123 132.132L98.7832 132.285C98.9514 132.328 99.1169 132.381 99.2787 132.443C99.4684 132.511 99.6492 132.601 99.8173 132.711C99.9861 132.828 100.128 132.979 100.232 133.153C100.346 133.354 100.402 133.581 100.394 133.811C100.396 134.097 100.314 134.379 100.157 134.621C99.9832 134.872 99.7405 135.071 99.4564 135.194C98.7653 135.466 97.9931 135.466 97.302 135.194C97.0252 135.082 96.7836 134.901 96.6019 134.668C96.4319 134.433 96.333 134.156 96.3164 133.868H97.0273C97.0343 134.063 97.1105 134.249 97.2428 134.394C97.3715 134.537 97.5371 134.642 97.7221 134.7C98.1572 134.841 98.629 134.832 99.0578 134.673C99.2526 134.602 99.4238 134.48 99.5533 134.321C99.6764 134.172 99.7413 133.986 99.7365 133.795C99.7427 133.63 99.6872 133.469 99.5803 133.342C99.4626 133.223 99.3216 133.128 99.1656 133.064C98.9909 132.988 98.8109 132.925 98.627 132.874L97.9322 132.68C97.5456 132.585 97.1863 132.405 96.8819 132.153C96.754 132.039 96.653 131.899 96.5861 131.743C96.5191 131.586 96.4877 131.418 96.4941 131.249C96.4879 130.957 96.5786 130.671 96.7527 130.433C96.9326 130.201 97.1723 130.019 97.4474 129.907C97.7571 129.781 98.0894 129.715 98.425 129.715C98.7606 129.715 99.0929 129.781 99.4025 129.907C99.6718 130.022 99.9058 130.203 100.081 130.433C100.246 130.65 100.338 130.911 100.345 131.18L99.6395 131.159Z"
    fill="white" />
  <path
    d="M103.949 135.31V129.776H105.861C106.235 129.763 106.606 129.845 106.938 130.012C107.209 130.156 107.429 130.376 107.569 130.644C107.707 130.918 107.777 131.221 107.773 131.527C107.776 131.835 107.706 132.14 107.569 132.416C107.431 132.687 107.211 132.91 106.938 133.053C106.607 133.222 106.235 133.304 105.861 133.29H104.488V132.695H105.84C106.093 132.706 106.345 132.654 106.572 132.543C106.747 132.447 106.887 132.302 106.976 132.127C107.06 131.938 107.102 131.734 107.1 131.527C107.103 131.323 107.061 131.12 106.976 130.933C106.889 130.758 106.748 130.615 106.572 130.523C106.341 130.413 106.086 130.36 105.829 130.37H104.622V135.31H103.949Z"
    fill="white" />
  <path d="M112.028 129.776V135.31H111.344V129.776H112.028Z" fill="white" />
  <path
    d="M115.797 135.31V129.776H117.709C118.081 129.765 118.45 129.84 118.786 129.997C119.054 130.131 119.274 130.342 119.416 130.602C119.555 130.872 119.625 131.172 119.621 131.475C119.626 131.776 119.556 132.074 119.416 132.343C119.272 132.598 119.052 132.805 118.786 132.937C118.449 133.09 118.08 133.162 117.709 133.148H116.163V132.569H117.687C117.938 132.579 118.188 132.536 118.42 132.443C118.591 132.365 118.733 132.236 118.824 132.075C118.912 131.896 118.954 131.699 118.948 131.501C118.954 131.3 118.911 131.1 118.824 130.917C118.733 130.75 118.59 130.615 118.414 130.533C118.182 130.433 117.93 130.387 117.677 130.396H116.497V135.336L115.797 135.31ZM118.463 132.827L119.858 135.31H119.061L117.687 132.827H118.463Z"
    fill="white" />
  <path
    d="M123.462 135.31H122.746L124.825 129.776H125.536L127.615 135.31H126.893L125.202 130.654H125.159L123.462 135.31ZM123.732 133.148H126.629V133.742H123.732V133.148Z"
    fill="white" />
  <path
    d="M135.23 131.517H134.546C134.511 131.33 134.44 131.151 134.336 130.991C134.236 130.847 134.112 130.721 133.969 130.617C133.825 130.518 133.665 130.442 133.495 130.391C133.32 130.343 133.139 130.318 132.957 130.318C132.628 130.314 132.305 130.401 132.025 130.57C131.738 130.757 131.508 131.017 131.363 131.322C131.19 131.703 131.107 132.116 131.12 132.532C131.108 132.95 131.19 133.365 131.363 133.748C131.507 134.053 131.736 134.312 132.025 134.495C132.304 134.665 132.628 134.754 132.957 134.752C133.139 134.753 133.321 134.726 133.495 134.673C133.665 134.625 133.826 134.548 133.969 134.447C134.112 134.346 134.236 134.221 134.336 134.079C134.438 133.918 134.509 133.739 134.546 133.553H135.23C135.185 133.82 135.09 134.077 134.95 134.31C134.816 134.529 134.643 134.722 134.438 134.879C134.235 135.035 134.005 135.156 133.759 135.236C133.498 135.317 133.226 135.358 132.951 135.357C132.497 135.365 132.05 135.245 131.664 135.01C131.279 134.771 130.971 134.429 130.776 134.026C130.55 133.552 130.439 133.034 130.452 132.511C130.438 131.99 130.549 131.473 130.776 131.001C130.971 130.598 131.279 130.257 131.664 130.018C132.05 129.783 132.497 129.663 132.951 129.671C133.226 129.67 133.498 129.711 133.759 129.792C134.006 129.869 134.236 129.991 134.438 130.149C134.644 130.303 134.818 130.494 134.95 130.712C135.095 130.96 135.19 131.234 135.23 131.517ZM132.666 135.342H133.205L133.161 135.562C133.308 135.585 133.445 135.644 133.56 135.736C133.623 135.796 133.671 135.868 133.702 135.948C133.733 136.028 133.745 136.114 133.738 136.199C133.74 136.31 133.714 136.42 133.662 136.519C133.611 136.618 133.535 136.703 133.442 136.767C133.185 136.932 132.88 137.009 132.574 136.988V136.567C132.721 136.573 132.867 136.544 133 136.483C133.053 136.462 133.098 136.426 133.129 136.379C133.16 136.331 133.175 136.276 133.172 136.22C133.178 136.169 133.168 136.118 133.143 136.072C133.118 136.027 133.079 135.991 133.032 135.968C132.887 135.909 132.732 135.877 132.574 135.873L132.666 135.342Z"
    fill="white" />
  <path
    d="M139.011 135.31H138.289L140.368 129.776H141.079L143.158 135.31H142.442L140.745 130.654H140.702L139.011 135.31ZM139.275 133.148H142.188V133.742H139.291L139.275 133.148ZM139.873 129.229L139.361 129.202C139.351 128.956 139.438 128.715 139.603 128.529C139.677 128.444 139.77 128.376 139.874 128.331C139.979 128.285 140.092 128.263 140.206 128.266C140.301 128.263 140.395 128.281 140.481 128.319C140.564 128.35 140.644 128.391 140.718 128.439C140.79 128.484 140.866 128.523 140.944 128.555C141.029 128.592 141.121 128.61 141.214 128.608C141.264 128.609 141.313 128.599 141.359 128.579C141.404 128.559 141.445 128.529 141.478 128.492C141.551 128.411 141.589 128.306 141.585 128.198L142.086 128.245C142.098 128.49 142.011 128.73 141.844 128.913C141.767 128.993 141.675 129.056 141.572 129.098C141.469 129.141 141.358 129.162 141.246 129.16C141.137 129.164 141.029 129.147 140.928 129.108C140.849 129.077 140.775 129.036 140.707 128.987L140.503 128.866C140.42 128.83 140.33 128.812 140.239 128.813C140.188 128.812 140.138 128.823 140.093 128.844C140.047 128.865 140.007 128.896 139.975 128.934C139.906 129.017 139.869 129.122 139.873 129.229Z"
    fill="white" />
  <path
    d="M151.001 132.569C151.014 133.092 150.904 133.61 150.678 134.084C150.482 134.487 150.174 134.828 149.789 135.068C149.399 135.295 148.953 135.415 148.499 135.415C148.045 135.415 147.599 135.295 147.209 135.068C146.824 134.828 146.516 134.487 146.32 134.084C146.095 133.61 145.984 133.092 145.997 132.569C145.983 132.048 146.094 131.531 146.32 131.059C146.516 130.656 146.824 130.315 147.209 130.076C147.599 129.849 148.045 129.729 148.499 129.729C148.953 129.729 149.399 129.849 149.789 130.076C150.174 130.315 150.482 130.656 150.678 131.059C150.904 131.531 151.015 132.048 151.001 132.569ZM150.333 132.569C150.346 132.153 150.263 131.74 150.091 131.359C149.948 131.051 149.718 130.79 149.428 130.607C149.149 130.437 148.825 130.35 148.496 130.354C148.168 130.351 147.845 130.439 147.565 130.607C147.277 130.792 147.049 131.053 146.908 131.359C146.73 131.738 146.645 132.153 146.66 132.569C146.646 132.987 146.731 133.403 146.908 133.784C147.048 134.09 147.276 134.35 147.565 134.531C147.844 134.701 148.167 134.791 148.496 134.789C148.826 134.792 149.149 134.703 149.428 134.531C149.719 134.351 149.95 134.092 150.091 133.784C150.263 133.402 150.346 132.987 150.333 132.569Z"
    fill="white" />
  <path
    d="M77.0831 84.1025L66.2466 115.535H62.6596L53.2342 88.7056L43.7657 115.535H40.2164L29.3691 84.1025H32.8538L42.1446 111.132L51.7477 84.1025H54.9362L64.41 111.269L73.83 84.1025H77.0831Z"
    fill="white" />
  <path
    d="M110.186 84.1025V115.535H106.826V101.031H86.7145V115.535H83.3105V84.1025H86.7145V98.1117H106.847V84.1025H110.186Z"
    fill="white" />
  <path d="M120.645 84.1025H124.048V115.535H120.645V84.1025Z" fill="white" />
  <path
    d="M64.3936 24.895C63.4219 24.8912 62.4909 24.5131 61.8029 23.8429L53.7671 16.2044C53.092 15.5272 52.7144 14.6191 52.7148 13.6739C52.7153 12.7287 53.0938 11.821 53.7696 11.1444C54.4454 10.4678 55.3651 10.0759 56.3325 10.0522C57.3 10.0284 58.2386 10.3748 58.9484 11.0173L66.9842 18.6769C67.512 19.1802 67.8742 19.8256 68.0247 20.5309C68.1752 21.2362 68.1071 21.9693 67.829 22.6366C67.551 23.3039 67.0757 23.8751 66.4638 24.2774C65.8519 24.6796 65.1312 24.8947 64.3936 24.895Z"
    fill="url(#paint0_linear_155_834)" />
  <path
    d="M52.539 70.2789C51.8124 70.2572 51.1082 70.0276 50.5141 69.6184C49.9199 69.2093 49.4619 68.6387 49.1968 67.9775C48.9318 67.3162 48.8714 66.5936 49.0232 65.8991C49.175 65.2047 49.5323 64.5691 50.0507 64.0713L78.9301 36.416C79.2777 36.083 79.6891 35.8201 80.1407 35.6424C80.5924 35.4647 81.0754 35.3757 81.5623 35.3803C82.0492 35.3849 82.5303 35.4832 82.9783 35.6695C83.4263 35.8558 83.8324 36.1264 84.1733 36.4659C84.5142 36.8055 84.7833 37.2073 84.9652 37.6484C85.1472 38.0896 85.2384 38.5614 85.2336 39.0369C85.2289 39.5125 85.1283 39.9825 84.9375 40.42C84.7468 40.8576 84.4698 41.2542 84.1221 41.5872L55.2481 69.2478C54.8913 69.5895 54.4672 69.857 54.0016 70.0342C53.536 70.2114 53.0385 70.2946 52.539 70.2789Z"
    fill="url(#paint1_linear_155_834)" />
  <path
    d="M60.2897 62.9193C61.2617 62.9197 62.1997 62.5694 62.9234 61.9356L55.2754 69.2216C54.8386 69.6449 54.3023 69.9574 53.7135 70.1317L53.5788 70.1685L53.4711 70.1948H53.3472H53.2126L53.0295 70.2211C52.9056 70.2211 52.7763 70.2211 52.6524 70.2211C52.5286 70.2211 52.4101 70.2211 52.2916 70.2211H52.1462H52.0869H51.9253L51.7207 70.179L51.5483 70.1264C51.4285 70.0931 51.3115 70.0509 51.1982 70.0002L51.042 69.937C50.7626 69.8059 50.5018 69.6397 50.2665 69.4425C50.2258 69.4166 50.1895 69.3846 50.1588 69.3479C50.112 69.3134 50.0687 69.2747 50.0295 69.2321C49.9431 69.1514 49.8621 69.0653 49.7871 68.9743C49.6367 68.7917 49.5033 68.5963 49.3886 68.3904C49.2305 68.1014 49.111 67.7938 49.0331 67.4751C49.0331 67.4277 49.0331 67.3804 49.0062 67.3383C49.0032 67.2962 49.0032 67.2541 49.0062 67.212C49.0062 67.1489 49.0062 67.091 49.0062 67.0279C49.0062 66.9648 49.0062 66.7859 49.0062 66.6596V10.1705C49.0062 10.0443 49.0062 9.92329 49.0062 9.80229C49.0062 9.68129 49.0062 9.68129 49.0062 9.61817C49.0042 9.569 49.006 9.51977 49.0116 9.47087C49.0116 9.42878 49.0116 9.3867 49.0385 9.33935C49.1142 9.01907 49.2319 8.70966 49.3886 8.41873C49.5062 8.23284 49.6395 8.05688 49.7871 7.89267C49.8607 7.80054 49.9418 7.71434 50.0295 7.63489C50.0687 7.59236 50.112 7.55361 50.1588 7.51916C50.1892 7.48069 50.2256 7.44698 50.2665 7.4192C50.5035 7.2257 50.764 7.06139 51.042 6.92996L51.1982 6.86683C51.3114 6.81442 51.4284 6.77045 51.5483 6.73532L51.7207 6.68797L51.9253 6.64062H52.0869H52.1462H52.2916C52.4101 6.64062 52.5286 6.64062 52.6524 6.64062C52.7763 6.64062 52.9056 6.64062 53.0295 6.64062H53.2126H53.3472H53.4711L53.5788 6.66693L53.7135 6.70375C54.3031 6.87648 54.8397 7.18916 55.2754 7.61385L62.9234 14.8999C62.3586 14.404 61.6589 14.0786 60.9089 13.9628C60.1588 13.847 59.3904 13.9458 58.6966 14.2474C58.0028 14.5489 57.4133 15.0403 56.9992 15.6621C56.5851 16.2838 56.3643 17.0094 56.3633 17.7512V59.0895C56.3633 59.5932 56.4649 60.0919 56.6622 60.5571C56.8595 61.0224 57.1488 61.4452 57.5133 61.8013C57.8779 62.1574 58.3108 62.4399 58.7871 62.6326C59.2635 62.8254 59.7741 62.9246 60.2897 62.9246V62.9193Z"
    fill="#F89623" />
  <path
    d="M89.0412 45.3906C90.0128 45.395 90.9435 45.773 91.6318 46.4428L99.6407 54.0813C100.004 54.4101 100.296 54.8067 100.5 55.2476C100.704 55.6886 100.815 56.1649 100.828 56.6485C100.84 57.1322 100.753 57.6134 100.572 58.0637C100.392 58.5141 100.12 58.9245 99.7742 59.2708C99.4283 59.6171 99.0149 59.8922 98.5584 60.08C98.102 60.2678 97.6116 60.3644 97.1163 60.3642C96.621 60.3639 96.1307 60.2668 95.6744 60.0786C95.2181 59.8904 94.805 59.6149 94.4595 59.2683L86.4506 51.6087C85.9228 51.1055 85.5606 50.46 85.4101 49.7547C85.2596 49.0494 85.3277 48.3163 85.6057 47.649C85.8837 46.9817 86.359 46.4105 86.971 46.0082C87.5829 45.606 88.3036 45.391 89.0412 45.3906Z"
    fill="url(#paint2_linear_155_834)" />
  <path
    d="M100.895 0.00157075C101.623 0.0218485 102.328 0.25085 102.923 0.66001C103.518 1.06917 103.976 1.64038 104.241 2.30239C104.506 2.96439 104.565 3.6879 104.412 4.38265C104.258 5.0774 103.899 5.71265 103.378 6.20917L74.5041 33.8698C73.7962 34.5131 72.8591 34.861 71.8924 34.8396C70.9257 34.8182 70.0058 34.4291 69.3284 33.7552C68.651 33.0812 68.2697 32.1756 68.2657 31.2312C68.2616 30.2867 68.6351 29.378 69.3067 28.6985L98.1861 1.05371C98.541 0.708025 98.9641 0.436485 99.4299 0.255608C99.8956 0.0747305 100.394 -0.0117014 100.895 0.00157075Z"
    fill="url(#paint3_linear_155_834)" />
  <path
    d="M104.488 3.6315V60.1154C104.488 60.2416 104.488 60.3626 104.488 60.4836C104.488 60.6046 104.488 60.6046 104.488 60.6677C104.49 60.7115 104.49 60.7554 104.488 60.7992C104.488 60.8361 104.488 60.8887 104.455 60.9308C104.384 61.2507 104.266 61.5589 104.105 61.8461C103.989 62.0476 103.855 62.2394 103.707 62.4195C103.631 62.509 103.55 62.5931 103.464 62.6773L103.335 62.7983L103.227 62.8877C102.99 63.0825 102.73 63.2486 102.452 63.3822L102.295 63.4506C102.179 63.499 102.061 63.5412 101.94 63.5769L101.773 63.6242C101.703 63.6242 101.638 63.6242 101.563 63.6663H101.407H101.353C101.303 63.6689 101.252 63.6689 101.202 63.6663C101.082 63.6743 100.961 63.6743 100.841 63.6663C100.716 63.6742 100.59 63.6742 100.464 63.6663L100.276 63.64C100.233 63.6451 100.189 63.6451 100.147 63.64H100.023H99.9149L99.7803 63.6032C99.1914 63.4289 98.6551 63.1164 98.2183 62.6931L90.5703 55.4071C91.1351 55.9029 91.8348 56.2284 92.5849 56.3442C93.335 56.46 94.1033 56.3611 94.7971 56.0595C95.4909 55.758 96.0805 55.2666 96.4945 54.6449C96.9086 54.0231 97.1294 53.2975 97.1304 52.5558V11.2016C97.1307 10.4593 96.9105 9.7329 96.4965 9.11046C96.0825 8.48802 95.4924 7.99631 94.7979 7.695C94.1033 7.39369 93.3342 7.29572 92.5838 7.41297C91.8334 7.53023 91.1339 7.85768 90.5703 8.35558L98.1591 1.05377C98.593 0.630305 99.1307 0.322423 99.721 0.159453L99.8557 0.117368H99.9634L100.087 0.0910645H100.217H100.405C100.529 0.0910645 100.658 0.0910645 100.782 0.0910645C100.906 0.0910645 101.024 0.0910645 101.143 0.0910645H101.294H101.348H101.504L101.714 0.138411C101.77 0.152778 101.826 0.170343 101.881 0.191017C102.003 0.222029 102.122 0.264304 102.236 0.317273C102.285 0.317273 102.344 0.354098 102.392 0.380402C102.669 0.514155 102.929 0.678296 103.168 0.869644C103.206 0.906469 103.243 0.932772 103.276 0.969597L103.41 1.05377C103.497 1.13277 103.578 1.21711 103.653 1.30628C103.802 1.48639 103.935 1.67818 104.051 1.87969C104.211 2.16726 104.329 2.4754 104.401 2.79505L104.434 2.93183C104.437 2.9756 104.437 3.01957 104.434 3.06335C104.434 3.12121 104.434 3.17908 104.434 3.24221C104.434 3.30534 104.488 3.49998 104.488 3.6315Z"
    fill="#1FAD90" />
  <defs>
    <linearGradient id="paint0_linear_155_834" x1="54.0687" y1="11.7538" x2="69.7654" y2="26.5889"
      gradientUnits="userSpaceOnUse">
      <stop stop-color="#CC6517" />
      <stop offset="1" stop-color="#F89623" />
    </linearGradient>
    <linearGradient id="paint1_linear_155_834" x1="48.9412" y1="52.8293" x2="85.237" y2="52.8293"
      gradientUnits="userSpaceOnUse">
      <stop stop-color="#CC6517" />
      <stop offset="1" stop-color="#F89623" />
    </linearGradient>
    <linearGradient id="paint2_linear_155_834" x1="99.3606" y1="58.5318" x2="83.6638" y2="43.702"
      gradientUnits="userSpaceOnUse">
      <stop stop-color="#178E72" />
      <stop offset="1" stop-color="#1FAD90" />
    </linearGradient>
    <linearGradient id="paint3_linear_155_834" x1="104.795" y1="0.00156967" x2="69.9736" y2="34.5363"
      gradientUnits="userSpaceOnUse">
      <stop stop-color="#178E72" />
      <stop offset="1" stop-color="#1FAD90" />
    </linearGradient>
  </defs>
</svg>