<svg width="101" height="91" viewBox="0 0 101 91" fill="none" xmlns="http://www.w3.org/2000/svg">
<g clip-path="url(#clip0_30_206)">
<path d="M50.7357 55.9976L43.7542 76.9262H41.4455L35.3826 59.0624L29.285 76.9262H27.0075L20.026 55.9976H22.2723L28.252 73.9944L34.4328 55.9976H36.4746L42.5721 74.0855L48.635 55.9976H50.7357Z" fill="white"/>
<path d="M72.0408 55.9976V76.9262H69.8812V67.2693H56.92V76.9262H54.7291V55.9976H56.92V65.3253H69.8812V55.9976H72.0408Z" fill="white"/>
<path d="M78.7832 55.9976H80.974V76.9262H78.7832V55.9976Z" fill="white"/>
<path d="M0.998353 89.8897L0 86.2048H0.447179L1.20981 89.2066H1.24794L2.02444 86.2048H2.52015L3.29664 89.2066H3.33477L4.09394 86.2048H4.54458L3.54623 89.8897H3.09212L2.28789 86.9544H2.25669L1.45246 89.8897H0.998353Z" fill="white"/>
<path d="M6.6626 89.8897V86.2048H8.86383V86.6006H7.10284V87.8476H8.74943V88.2434H7.10284V89.4939H8.89156V89.8897H6.6626Z" fill="white"/>
<path d="M11.2314 89.8896V86.2048H12.5071C12.7238 86.1974 12.9391 86.2431 13.1346 86.3379C13.2884 86.4157 13.4162 86.5375 13.502 86.6882C13.583 86.8399 13.6247 87.0097 13.6233 87.1821C13.628 87.3178 13.5995 87.4525 13.5401 87.5744C13.4876 87.6714 13.4142 87.7552 13.3252 87.8196C13.235 87.8779 13.137 87.9228 13.034 87.9527V87.9877C13.158 87.9953 13.2778 88.0364 13.3807 88.1068C13.4978 88.1847 13.5943 88.2906 13.6615 88.415C13.7399 88.5682 13.7808 88.7382 13.7808 88.9106C13.7808 89.0831 13.7399 89.2531 13.6615 89.4063C13.5702 89.5615 13.4333 89.6839 13.2697 89.7565C13.0509 89.8507 12.8142 89.8949 12.5764 89.8861L11.2314 89.8896ZM11.6717 87.8266H12.4794C12.5994 87.826 12.7178 87.7984 12.826 87.746C12.9307 87.6971 13.0196 87.6194 13.0826 87.5218C13.1521 87.419 13.1862 87.2959 13.1796 87.1716C13.1814 87.0948 13.1675 87.0185 13.1389 86.9474C13.1103 86.8763 13.0675 86.8119 13.0132 86.7582C12.9405 86.6955 12.8562 86.6481 12.7651 86.6186C12.674 86.5891 12.5781 86.5783 12.4829 86.5866H11.6717V87.8266ZM11.6717 89.4938H12.5487C12.771 89.5156 12.9934 89.4532 13.1727 89.3187C13.2306 89.267 13.277 89.2033 13.3086 89.1321C13.3403 89.0608 13.3566 88.9835 13.3564 88.9054C13.3581 88.7821 13.3257 88.6608 13.2628 88.5551C13.1973 88.4467 13.1038 88.3583 12.9924 88.2994C12.865 88.2334 12.7231 88.2009 12.5799 88.2049H11.6717V89.4938Z" fill="white"/>
<path d="M18.057 87.126C18.0489 87.0399 18.0213 86.9568 17.9762 86.8833C17.9311 86.8098 17.8698 86.7478 17.797 86.7022C17.6298 86.5973 17.4356 86.5449 17.2389 86.5516C17.0941 86.5473 16.9501 86.5735 16.816 86.6287C16.7037 86.6758 16.6057 86.7519 16.5317 86.8493C16.4652 86.9406 16.4299 87.0513 16.4312 87.1646C16.4286 87.2543 16.4541 87.3425 16.504 87.4168C16.5516 87.487 16.613 87.5466 16.6842 87.5919C16.7571 87.6383 16.835 87.6759 16.9165 87.704C16.9962 87.732 17.069 87.7565 17.1383 87.774L17.5093 87.8756C17.6164 87.9043 17.7217 87.9393 17.8247 87.9807C17.9475 88.0246 18.0641 88.0847 18.1714 88.1593C18.28 88.2371 18.371 88.3374 18.4383 88.4536C18.5128 88.587 18.5499 88.7383 18.5457 88.8914C18.548 89.0829 18.4937 89.2707 18.3898 89.4308C18.2787 89.5976 18.1238 89.7298 17.9426 89.8126C17.7169 89.9137 17.4718 89.9627 17.225 89.9562C16.9931 89.9624 16.7626 89.9182 16.549 89.8266C16.3713 89.7529 16.2168 89.6319 16.1019 89.4764C15.99 89.3208 15.925 89.1359 15.9147 88.9439H16.3619C16.3663 89.0734 16.4154 89.1973 16.5005 89.2942C16.5851 89.3884 16.6927 89.4585 16.8125 89.4974C16.9421 89.5413 17.0779 89.5638 17.2146 89.5639C17.37 89.5668 17.5244 89.5382 17.6687 89.4799C17.794 89.4322 17.9042 89.3511 17.9876 89.2452C18.0663 89.146 18.108 89.022 18.1055 88.8949C18.1095 88.7855 18.0738 88.6783 18.005 88.5937C17.9302 88.5132 17.8392 88.4499 17.7381 88.408C17.6257 88.3576 17.5098 88.3154 17.3914 88.2819L16.9408 88.1523C16.6858 88.0917 16.4484 87.9718 16.2475 87.8021C16.1651 87.7259 16.1001 87.6326 16.057 87.5286C16.0139 87.4246 15.9937 87.3123 15.9979 87.1996C15.9939 87.0052 16.0522 86.8148 16.1643 86.6567C16.2805 86.501 16.4362 86.38 16.6149 86.3064C16.8135 86.222 17.0269 86.1786 17.2423 86.1786C17.4578 86.1786 17.6711 86.222 17.8698 86.3064C18.0431 86.3827 18.1937 86.5035 18.3066 86.6567C18.4127 86.8007 18.472 86.9745 18.4764 87.1541L18.057 87.126Z" fill="white"/>
<path d="M24.9346 89.8897H23.808V86.2048H24.9866C25.3023 86.1954 25.6147 86.2716 25.8914 86.4255C26.1445 86.5713 26.3467 86.7928 26.4703 87.0595C26.6121 87.3661 26.681 87.7019 26.6713 88.0402C26.6809 88.3819 26.6121 88.7212 26.4703 89.0315C26.3425 89.3007 26.1354 89.5234 25.8775 89.669C25.5875 89.8242 25.2625 89.9002 24.9346 89.8897ZM24.2413 89.4938H24.8965C25.1595 89.5063 25.4208 89.4457 25.6522 89.3187C25.8485 89.203 26.0037 89.0278 26.0959 88.8178C26.2875 88.3211 26.2875 87.7698 26.0959 87.2731C26.0063 87.0658 25.8548 86.8919 25.6626 86.7758C25.4444 86.6536 25.1978 86.593 24.9485 86.6006H24.2656L24.2413 89.4938Z" fill="white"/>
<path d="M28.9834 89.8897V86.2048H31.1985V86.6006H29.4236V87.8476H31.0702V88.2434H29.4236V89.4939H31.1985V89.8897H28.9834Z" fill="white"/>
<path d="M36.6825 89.8897H36.218L37.5561 86.2048H38.0137L39.3517 89.8897H38.8872L37.7849 86.7898L36.6825 89.8897ZM36.8524 88.4501H38.7174V88.8459H36.8524V88.4501Z" fill="white"/>
<path d="M41.4906 89.8897V86.2048H41.9447V89.4939H43.6398V89.8897H41.4906Z" fill="white"/>
<path d="M45.1963 86.6006V86.2048H47.9314V86.6006H46.7978V89.8897H46.3541V86.6006H45.1963Z" fill="white"/>
<path d="M49.9176 89.8897H49.4565L50.7946 86.2048H51.2522L52.5903 89.8897H52.1257L51.0373 86.7898H51.0095L49.9176 89.8897ZM50.0909 88.4501H51.9559V88.8459H50.0909V88.4501Z" fill="white"/>
<path d="M58.1402 86.2048V89.8897H57.7V86.2048H58.1402Z" fill="white"/>
<path d="M63.4855 86.2048V89.8897H63.0557L61.0694 86.9964H61.0347V89.8897H60.5945V86.2048H61.0105L63.0037 89.1051H63.0384V86.2048H63.4855Z" fill="white"/>
<path d="M67.9434 87.1261C67.9339 87.0403 67.9056 86.9579 67.8606 86.8845C67.8157 86.8112 67.7551 86.749 67.6834 86.7022C67.5151 86.5969 67.3197 86.5444 67.1218 86.5516C66.9772 86.5482 66.8333 86.5744 66.6989 86.6287C66.5879 86.6763 66.4911 86.7524 66.4181 86.8493C66.3516 86.9406 66.3164 87.0513 66.3176 87.1646C66.3156 87.2537 66.3397 87.3415 66.3869 87.4168C66.4358 87.4871 66.4983 87.5467 66.5707 87.5919C66.6426 87.6376 66.7194 87.6752 66.7994 87.704C66.8826 87.732 66.9554 87.7565 67.0248 87.774L67.3922 87.8756C67.5005 87.9042 67.607 87.9393 67.7111 87.9807C67.8339 88.0247 67.9505 88.0847 68.0578 88.1593C68.1665 88.2371 68.2575 88.3374 68.3247 88.4536C68.398 88.5873 68.4339 88.7386 68.4287 88.8914C68.4305 89.0823 68.3776 89.2697 68.2762 89.4308C68.1646 89.5985 68.0084 89.7308 67.8255 89.8126C67.3807 89.9938 66.8838 89.9938 66.4389 89.8126C66.2607 89.7381 66.1053 89.6173 65.9883 89.4623C65.8789 89.3058 65.8152 89.1213 65.8046 88.9299H66.2621C66.2666 89.0594 66.3157 89.1833 66.4008 89.2802C66.4836 89.3748 66.5902 89.445 66.7093 89.4834C66.8401 89.5275 66.977 89.55 67.1149 89.5499C67.2703 89.5524 67.4246 89.5238 67.569 89.4658C67.6943 89.4181 67.8045 89.337 67.8879 89.2312C67.9666 89.132 68.0083 89.008 68.0058 88.8809C68.0098 88.7715 67.9741 88.6643 67.9053 88.5797C67.8305 88.4992 67.7394 88.4359 67.6383 88.394C67.5259 88.3437 67.4101 88.3016 67.2917 88.2679L66.8445 88.1383C66.5957 88.0752 66.3645 87.9554 66.1685 87.7881C66.0862 87.7119 66.0212 87.6186 65.9781 87.5146C65.935 87.4106 65.9148 87.2983 65.919 87.1856C65.9149 86.9912 65.9733 86.8007 66.0854 86.6427C66.2011 86.488 66.3554 86.3671 66.5325 86.2924C66.7318 86.2081 66.9457 86.1647 67.1617 86.1647C67.3777 86.1647 67.5916 86.2081 67.7909 86.2924C67.9642 86.3687 68.1147 86.4895 68.2277 86.6427C68.3338 86.7867 68.3931 86.9605 68.3975 87.1401L67.9434 87.1261Z" fill="white"/>
<path d="M70.7167 89.8897V86.2048H71.9473C72.1879 86.1967 72.4266 86.251 72.6406 86.3624C72.8148 86.4578 72.9563 86.6044 73.0462 86.7828C73.1352 86.9658 73.1803 87.1674 73.1779 87.3712C73.1799 87.5762 73.1348 87.7788 73.0462 87.9632C72.9576 88.1434 72.8159 88.2915 72.6406 88.387C72.427 88.4995 72.188 88.5538 71.9473 88.5446H71.0633V88.1488H71.9334C72.0966 88.156 72.2588 88.1211 72.4049 88.0472C72.5181 87.9833 72.6089 87.8854 72.6648 87.767C72.7175 87.6419 72.7446 87.5072 72.7446 87.3712C72.7446 87.2352 72.7175 87.1006 72.6648 86.9754C72.6087 86.859 72.5178 86.7634 72.4049 86.7022C72.2561 86.629 72.0918 86.5941 71.9265 86.6006H71.15V89.8897H70.7167Z" fill="white"/>
<path d="M75.9164 86.2048V89.8897H75.4762V86.2048H75.9164Z" fill="white"/>
<path d="M78.3429 89.8897V86.2048H79.5735C79.8129 86.1974 80.0506 86.2478 80.2668 86.3519C80.4393 86.4416 80.5807 86.582 80.6724 86.7547C80.7618 86.9351 80.807 87.1345 80.8041 87.3362C80.8074 87.5368 80.7622 87.7352 80.6724 87.9141C80.5801 88.0838 80.4385 88.2207 80.2668 88.3064C80.0508 88.4108 79.8127 88.4601 79.5735 88.45H78.5786V88.0472H79.5596C79.7209 88.0537 79.8817 88.025 80.0311 87.9632C80.1413 87.9114 80.2324 87.8255 80.2911 87.718C80.3477 87.5991 80.375 87.4681 80.3708 87.3362C80.3747 87.2021 80.3474 87.0689 80.2911 86.9474C80.2327 86.8358 80.1403 86.7462 80.0276 86.6917C79.8782 86.6252 79.7158 86.594 79.5527 86.6006H78.7935V89.8897H78.3429ZM80.0588 88.2364L80.9566 89.8897H80.4436L79.5596 88.2364H80.0588Z" fill="white"/>
<path d="M83.2757 89.8897H82.8147L84.1528 86.2048H84.6103L85.9484 89.8897H85.4839L84.3954 86.7898H84.3677L83.2757 89.8897ZM83.4491 88.4501H85.314V88.8459H83.4491V88.4501Z" fill="white"/>
<path d="M90.8501 87.3572H90.4098C90.3867 87.233 90.3409 87.1142 90.2747 87.007C90.2099 86.9128 90.1302 86.8299 90.0389 86.7618C89.9457 86.6957 89.8428 86.6449 89.7339 86.6112C89.6211 86.579 89.5044 86.5625 89.3872 86.5621C89.1756 86.5596 88.9676 86.6179 88.7875 86.7302C88.6025 86.8544 88.4549 87.0277 88.3611 87.2311C88.25 87.4844 88.1966 87.7598 88.2052 88.0367C88.1971 88.3148 88.2504 88.5912 88.3611 88.8459C88.4539 89.049 88.6017 89.2215 88.7875 89.3433C88.9673 89.4567 89.1753 89.5162 89.3872 89.5149C89.5047 89.515 89.6216 89.4973 89.7339 89.4623C89.8433 89.4301 89.9465 89.3792 90.0389 89.3117C90.131 89.2444 90.2107 89.1614 90.2747 89.0665C90.3406 88.9592 90.3864 88.8404 90.4098 88.7163H90.8501C90.8206 88.894 90.7595 89.0649 90.6698 89.2207C90.584 89.3662 90.4724 89.4944 90.3405 89.5989C90.2097 89.7033 90.0619 89.7839 89.9037 89.8371C89.7356 89.8911 89.5602 89.9182 89.3838 89.9177C89.0913 89.9229 88.8036 89.8426 88.5553 89.6865C88.3074 89.527 88.1091 89.2999 87.9833 89.0315C87.8379 88.716 87.7667 88.3707 87.7753 88.0227C87.7662 87.6759 87.8374 87.3316 87.9833 87.0175C88.1081 86.7484 88.3066 86.5211 88.5553 86.3625C88.8036 86.2064 89.0913 86.1261 89.3838 86.1313C89.5602 86.1307 89.7356 86.1579 89.9037 86.2118C90.0625 86.2636 90.2105 86.3443 90.3405 86.45C90.4731 86.5524 90.5849 86.6797 90.6698 86.8248C90.7629 86.9891 90.824 87.1698 90.8501 87.3572ZM89.2 89.9037H89.5467L89.519 90.0508C89.6131 90.0655 89.7017 90.1054 89.7755 90.1664C89.8163 90.2057 89.8478 90.2539 89.8676 90.3073C89.8874 90.3607 89.895 90.4179 89.8899 90.4746C89.8912 90.5486 89.8745 90.6218 89.8413 90.6878C89.808 90.7538 89.7592 90.8105 89.6992 90.8529C89.5342 90.9624 89.3381 91.0141 89.1411 91V90.7198C89.2355 90.7239 89.3295 90.7046 89.415 90.6638C89.4492 90.6499 89.4783 90.6256 89.4982 90.5942C89.5181 90.5628 89.5278 90.5259 89.5259 90.4886C89.5296 90.4547 89.5229 90.4204 89.5068 90.3904C89.4907 90.3603 89.4659 90.336 89.4358 90.3205C89.3421 90.2816 89.2423 90.2603 89.1411 90.2575L89.2 89.9037Z" fill="white"/>
<path d="M93.2836 89.8897H92.8191L94.1572 86.2048H94.6147L95.9528 89.8897H95.4918L94.3998 86.7898H94.3721L93.2836 89.8897ZM93.4535 88.4501H95.3288V88.8459H93.4639L93.4535 88.4501ZM93.8382 85.837H93.5089C93.5025 85.673 93.5583 85.5126 93.6649 85.3887C93.7126 85.332 93.7722 85.2869 93.8394 85.2566C93.9065 85.2263 93.9796 85.2116 94.0532 85.2136C94.1139 85.2119 94.1743 85.2239 94.2299 85.2486C94.2828 85.27 94.3338 85.2958 94.3825 85.3257C94.4279 85.358 94.4767 85.385 94.5281 85.4062C94.5825 85.4308 94.6418 85.4428 94.7014 85.4412C94.7336 85.4418 94.7655 85.4352 94.7949 85.4219C94.8242 85.4086 94.8503 85.3889 94.8713 85.3642C94.9184 85.3102 94.9433 85.24 94.9406 85.168L95.263 85.1996C95.2707 85.3628 95.2146 85.5225 95.107 85.6444C95.0577 85.6974 94.9981 85.7394 94.9318 85.7678C94.8655 85.7961 94.7941 85.8102 94.7222 85.809C94.6524 85.8118 94.5827 85.7999 94.5177 85.774C94.4677 85.7521 94.4201 85.7251 94.3755 85.6934L94.2438 85.6129C94.1903 85.5892 94.1324 85.5772 94.074 85.5778C94.0415 85.5774 94.0093 85.5845 93.9799 85.5984C93.9505 85.6124 93.9246 85.6329 93.9041 85.6584C93.8631 85.7089 93.84 85.7718 93.8382 85.837Z" fill="white"/>
<path d="M101 88.0472C101.009 88.3952 100.937 88.7405 100.792 89.056C100.666 89.3244 100.468 89.5515 100.22 89.711C99.9689 89.8621 99.682 89.9419 99.3898 89.9419C99.0975 89.9419 98.8106 89.8621 98.5595 89.711C98.3116 89.5515 98.1134 89.3244 97.9876 89.056C97.8421 88.7405 97.771 88.3952 97.7796 88.0472C97.7705 87.7003 97.8417 87.3561 97.9876 87.042C98.1127 86.773 98.311 86.5457 98.5593 86.3864C98.8076 86.2271 99.0957 86.1426 99.3898 86.1426C99.6839 86.1426 99.9719 86.2271 100.22 86.3864C100.468 86.5457 100.667 86.773 100.792 87.042C100.938 87.3561 101.009 87.7003 101 88.0472ZM100.57 88.0472C100.579 87.7703 100.525 87.4949 100.414 87.2416C100.323 87.0367 100.175 86.8628 99.9877 86.7407C99.8079 86.6278 99.5997 86.5695 99.388 86.5726C99.1765 86.5704 98.9686 86.6287 98.7883 86.7407C98.6033 86.8639 98.4567 87.0376 98.3654 87.2416C98.2513 87.4941 98.1967 87.7698 98.206 88.0472C98.1972 88.3257 98.2517 88.6025 98.3654 88.8563C98.4578 89.0608 98.6072 89.2337 98.7953 89.3537C98.9752 89.4668 99.1831 89.5263 99.395 89.5254C99.607 89.5272 99.8151 89.4677 99.9947 89.3537C100.182 89.234 100.33 89.0609 100.421 88.8563C100.529 88.6011 100.58 88.3248 100.57 88.0472Z" fill="white"/>
<path d="M42.5687 16.5748C41.9432 16.5722 41.3441 16.3205 40.9013 15.8742L35.7292 10.7883C35.276 10.341 35.0172 9.73011 35.0097 9.08998C35.006 8.77302 35.0641 8.45842 35.1807 8.16416C35.2974 7.86989 35.4702 7.60172 35.6894 7.37495C35.9086 7.14818 36.1698 6.96725 36.4582 6.8425C36.7466 6.71775 37.0565 6.65161 37.3702 6.64787C38.0037 6.64032 38.6142 6.88737 39.0675 7.33467L44.236 12.4346C44.5757 12.7697 44.8089 13.1995 44.9057 13.6691C45.0026 14.1387 44.9587 14.6268 44.7798 15.0711C44.6009 15.5154 44.295 15.8957 43.9011 16.1636C43.5073 16.4314 43.0434 16.5745 42.5687 16.5748Z" fill="url(#paint0_linear_30_206)"/>
<path d="M34.9389 46.7925C34.4712 46.7781 34.018 46.6251 33.6356 46.3527C33.2532 46.0803 32.9584 45.7004 32.7878 45.2601C32.6172 44.8199 32.5784 44.3387 32.6761 43.8763C32.7738 43.414 33.0037 42.9908 33.3374 42.6593L51.9248 24.2457C52.1485 24.0239 52.4133 23.8489 52.704 23.7306C52.9946 23.6123 53.3055 23.553 53.6189 23.5561C53.9323 23.5592 54.242 23.6246 54.5303 23.7486C54.8186 23.8727 55.08 24.0529 55.2994 24.2789C55.5188 24.505 55.692 24.7725 55.8091 25.0663C55.9262 25.36 55.9849 25.6741 55.9819 25.9908C55.9788 26.3074 55.914 26.6203 55.7913 26.9117C55.6686 27.203 55.4902 27.4671 55.2665 27.6888L36.6826 46.106C36.4529 46.3335 36.1799 46.5116 35.8803 46.6295C35.5806 46.7475 35.2604 46.803 34.9389 46.7925Z" fill="url(#paint1_linear_30_206)"/>
<path d="M39.9272 41.8922C40.5529 41.8925 41.1565 41.6593 41.6223 41.2372L36.6999 46.0885C36.4188 46.3703 36.0736 46.5784 35.6946 46.6944L35.608 46.7189L35.5386 46.7365H35.4589H35.3722L35.2544 46.754C35.1747 46.754 35.0915 46.754 35.0117 46.754C34.932 46.754 34.8557 46.754 34.7795 46.754H34.6859H34.6477H34.5438L34.412 46.726L34.3011 46.6909C34.224 46.6687 34.1487 46.6406 34.0758 46.6069L33.9752 46.5648C33.7954 46.4775 33.6276 46.3668 33.4761 46.2356C33.4506 46.2173 33.4274 46.1962 33.4067 46.1725C33.3766 46.1496 33.3488 46.1238 33.3235 46.0955C33.2679 46.0417 33.2158 45.9844 33.1675 45.9238C33.0711 45.8045 32.9852 45.6767 32.911 45.542C32.8093 45.3496 32.7324 45.1448 32.6822 44.9326C32.6822 44.901 32.6822 44.8695 32.6822 44.8415C32.6803 44.8135 32.6803 44.7854 32.6822 44.7574C32.6822 44.7154 32.6822 44.6769 32.6822 44.6348C32.6822 44.5928 32.6822 44.4737 32.6822 44.3897V6.77071C32.6822 6.68665 32.6822 6.60609 32.6822 6.52553C32.6822 6.44496 32.6822 6.44496 32.6822 6.40293C32.6803 6.37378 32.6803 6.34452 32.6822 6.31536C32.6822 6.28734 32.6822 6.25932 32.6822 6.2278C32.7312 6.01077 32.8082 5.80116 32.911 5.60432C32.9867 5.48055 33.0725 5.36338 33.1675 5.25405C33.2149 5.19271 33.2671 5.13532 33.3235 5.08242C33.3488 5.0541 33.3766 5.02829 33.4067 5.00536C33.4273 4.98057 33.4505 4.95825 33.4761 4.93881C33.6266 4.80407 33.7931 4.68877 33.9718 4.59554L34.0758 4.55351C34.1486 4.51861 34.2239 4.48934 34.3011 4.46594L34.412 4.43442L34.5438 4.40289H34.6477H34.6859H34.7795C34.8557 4.40289 34.932 4.40289 35.0117 4.40289C35.0915 4.40289 35.1747 4.40289 35.2544 4.40289H35.3722H35.4589H35.5386L35.608 4.42041L35.6946 4.44493C36.0741 4.55993 36.4195 4.76812 36.6999 5.05089L41.6223 9.90212C41.2588 9.57198 40.8085 9.35526 40.3257 9.27817C39.843 9.20107 39.3484 9.26689 38.9019 9.46767C38.4553 9.66846 38.0759 9.99561 37.8094 10.4096C37.5429 10.8236 37.4008 11.3067 37.4001 11.8006V39.3248C37.4001 39.6601 37.4655 39.9921 37.5925 40.3019C37.7195 40.6117 37.9057 40.8932 38.1403 41.1303C38.375 41.3674 38.6536 41.5555 38.9602 41.6839C39.2668 41.8122 39.5954 41.8782 39.9272 41.8782V41.8922Z" fill="#F89623"/>
<path d="M58.4314 30.2213C59.0567 30.2242 59.6557 30.4758 60.0988 30.9218L65.2673 36.0217C65.5011 36.2407 65.6892 36.5048 65.8204 36.7983C65.9516 37.0919 66.0233 37.409 66.0313 37.7311C66.0394 38.0531 65.9835 38.3735 65.867 38.6733C65.7505 38.9732 65.5759 39.2465 65.3532 39.477C65.1306 39.7076 64.8645 39.8908 64.5707 40.0158C64.2769 40.1409 63.9613 40.2052 63.6425 40.205C63.3237 40.2049 63.0082 40.1402 62.7145 40.0149C62.4208 39.8896 62.1549 39.7062 61.9325 39.4754L56.764 34.3614C56.4243 34.0263 56.1912 33.5966 56.0943 33.127C55.9975 32.6574 56.0413 32.1693 56.2202 31.725C56.3992 31.2807 56.7051 30.9003 57.0989 30.6325C57.4927 30.3646 57.9566 30.2215 58.4314 30.2213Z" fill="url(#paint2_linear_30_206)"/>
<path d="M66.0612 2.87973e-05C66.5293 0.0135302 66.9832 0.166005 67.3661 0.438435C67.749 0.710864 68.0441 1.09119 68.2146 1.53197C68.385 1.97275 68.4232 2.45448 68.3244 2.91707C68.2257 3.37965 67.9943 3.80262 67.6592 4.13321L49.0753 22.5504C48.8537 22.7823 48.5884 22.967 48.2949 23.0937C48.0015 23.2203 47.686 23.2862 47.3669 23.2875C47.0479 23.2889 46.7318 23.2256 46.4374 23.1015C46.1429 22.9774 45.876 22.7949 45.6525 22.5649C45.429 22.3348 45.2534 22.0618 45.136 21.7621C45.0186 21.4623 44.9619 21.1418 44.9691 20.8195C44.9764 20.4972 45.0474 20.1796 45.1781 19.8855C45.3088 19.5915 45.4965 19.3268 45.7301 19.1072L64.3175 0.700568C64.5459 0.470404 64.8183 0.289606 65.1181 0.169173C65.4178 0.0487405 65.7387 -0.00880817 66.0612 2.87973e-05Z" fill="url(#paint3_linear_30_206)"/>
<path d="M68.3768 2.41688V40.0253C68.3768 40.1094 68.3768 40.1899 68.3768 40.2705C68.3768 40.3511 68.3768 40.3511 68.3594 40.3931C68.3611 40.4223 68.3611 40.4515 68.3594 40.4807C68.3594 40.5052 68.3594 40.5402 68.3386 40.5682C68.2928 40.7812 68.2169 40.9865 68.1133 41.1777C68.0383 41.3119 67.9525 41.4396 67.8568 41.5595C67.8082 41.619 67.7562 41.6751 67.7008 41.7311L67.6176 41.8117L67.5483 41.8712C67.3956 42.0009 67.228 42.1115 67.0491 42.2005L66.9486 42.246C66.8741 42.2788 66.7977 42.3069 66.7198 42.3301L66.6123 42.3616C66.5672 42.3616 66.5256 42.3616 66.4771 42.3896H66.3766H66.3419C66.3096 42.3914 66.2772 42.3914 66.2449 42.3896C66.1675 42.395 66.0899 42.395 66.0126 42.3896C65.9318 42.3949 65.8507 42.3949 65.7699 42.3896L65.6486 42.3721C65.621 42.3755 65.5931 42.3755 65.5654 42.3721H65.4857H65.4164L65.3297 42.3476C64.9507 42.2315 64.6055 42.0235 64.3244 41.7416L59.402 36.8904C59.7655 37.2206 60.2158 37.4373 60.6986 37.5144C61.1814 37.5915 61.6759 37.5256 62.1224 37.3249C62.569 37.1241 62.9484 36.7969 63.2149 36.3829C63.4814 35.9689 63.6236 35.4858 63.6242 34.9919V7.45726C63.6244 6.96303 63.4827 6.47936 63.2162 6.06492C62.9497 5.65048 62.5699 5.32309 62.1229 5.12247C61.6759 4.92185 61.1809 4.85662 60.6979 4.93469C60.2149 5.01276 59.7647 5.23078 59.402 5.5623L64.3001 0.700563C64.5794 0.418611 64.9255 0.213615 65.3054 0.105105L65.3921 0.0770838H65.4614L65.5412 0.0595703H65.6243H65.7457C65.8254 0.0595703 65.9086 0.0595703 65.9883 0.0595703C66.0681 0.0595703 66.1443 0.0595703 66.2206 0.0595703H66.3176H66.3523H66.4528L66.588 0.0910946C66.6245 0.100661 66.6604 0.112356 66.6955 0.126122C66.7744 0.146183 66.8511 0.174352 66.9243 0.210186C66.9555 0.210186 66.9936 0.234705 67.0248 0.252219C67.2029 0.341275 67.3704 0.450565 67.524 0.577969C67.5483 0.602488 67.5725 0.620001 67.5933 0.64452C67.6227 0.669561 67.6505 0.696469 67.6765 0.725082C67.732 0.777681 67.7841 0.833841 67.8325 0.893212C67.9283 1.01313 68.0141 1.14083 68.089 1.27501C68.1921 1.46647 68.2679 1.67164 68.3144 1.88447L68.3352 1.97554C68.3374 2.00469 68.3374 2.03396 68.3352 2.06311C68.3352 2.10164 68.3352 2.14017 68.3525 2.1822C68.3698 2.22424 68.3768 2.32932 68.3768 2.41688Z" fill="#1FAD90"/>
</g>
<defs>
<linearGradient id="paint0_linear_30_206" x1="35.9234" y1="7.82504" x2="46.3487" y2="17.3495" gradientUnits="userSpaceOnUse">
<stop stop-color="#CC6517"/>
<stop offset="1" stop-color="#F89623"/>
</linearGradient>
<linearGradient id="paint1_linear_30_206" x1="32.6233" y1="35.1741" x2="55.984" y2="35.1741" gradientUnits="userSpaceOnUse">
<stop stop-color="#CC6517"/>
<stop offset="1" stop-color="#F89623"/>
</linearGradient>
<linearGradient id="paint2_linear_30_206" x1="65.0732" y1="38.971" x2="54.6479" y2="29.45" gradientUnits="userSpaceOnUse">
<stop stop-color="#178E72"/>
<stop offset="1" stop-color="#1FAD90"/>
</linearGradient>
<linearGradient id="paint3_linear_30_206" x1="68.5709" y1="2.81217e-05" x2="45.406" y2="22.2083" gradientUnits="userSpaceOnUse">
<stop stop-color="#178E72"/>
<stop offset="1" stop-color="#1FAD90"/>
</linearGradient>
<clipPath id="clip0_30_206">
<rect width="101" height="91" fill="white"/>
</clipPath>
</defs>
</svg>
