<svg width="33" height="33" viewBox="0 0 33 33" fill="none" xmlns="http://www.w3.org/2000/svg">
<path id="Vector" d="M16.4997 33H16.4932C13.9186 32.999 11.3659 32.3864 9.07832 31.2241L2.02675 32.8409C1.59647 32.9393 1.14581 32.8092 0.832603 32.4957C0.519402 32.1823 0.387222 31.7291 0.481888 31.2946L2.00988 24.2939C0.697151 21.8503 0.00402832 19.1739 0.00025177 16.5202C0 16.511 0 16.5019 0 16.493C0.00176239 12.0953 1.72714 7.95365 4.8579 4.83117C7.98161 1.71579 12.1159 0 16.4995 0C20.8929 0.00177645 25.0207 1.71909 28.1237 4.83523C31.2698 7.99476 33.0015 12.1397 33 16.5062C32.9987 19.8061 32.0171 22.9953 30.1613 25.7288C29.7592 26.3211 28.9571 26.4726 28.3694 26.0673C27.7821 25.662 27.6315 24.8535 28.0336 24.2612C29.5948 21.9614 30.4206 19.2795 30.4219 16.5052C30.4231 12.8348 28.9609 9.3441 26.3042 6.67613C23.6875 4.04826 20.2053 2.60021 16.499 2.59869C8.83436 2.59869 2.59424 8.81878 2.57812 16.4697C2.57812 16.478 2.57838 16.4862 2.57838 16.4943C2.57737 18.8625 3.23827 21.2638 4.48931 23.4384C4.6512 23.7199 4.70256 24.052 4.63307 24.3695L3.43641 29.8524L8.96906 28.5838C9.27445 28.514 9.5947 28.5584 9.87014 28.7089C11.8916 29.8151 14.182 30.4003 16.4937 30.4013H16.4995C19.0134 30.4013 21.4823 29.7161 23.6389 28.4201C24.2502 28.0523 25.0415 28.2541 25.4061 28.8705C25.7707 29.487 25.5708 30.2843 24.9592 30.652C22.4035 32.1879 19.4782 33 16.4995 33H16.4997ZM12.8592 9.88921C12.5764 9.25782 12.2788 9.23624 12.0099 9.22533H11.2866C11.0348 9.22533 10.626 9.32024 10.2803 9.69964C9.93434 10.079 8.95924 10.9962 8.95924 12.8617C8.95924 14.7272 10.3117 16.5301 10.5003 16.7833C10.6891 17.0361 13.1114 20.9867 16.9474 22.5065C20.1356 23.7696 20.7844 23.5184 21.4762 23.4549C22.1684 23.392 23.7094 22.538 24.0236 21.6526C24.3384 20.7674 24.3384 20.0086 24.2439 19.85C24.1498 19.6921 23.898 19.5972 23.5206 19.4077C23.143 19.2181 21.2932 18.2849 20.9473 18.1586C20.6013 18.0322 20.3498 17.969 20.098 18.3486C19.8463 18.7278 19.1051 19.6046 18.8848 19.8574C18.6647 20.1109 18.4444 20.1423 18.067 19.9528C17.6896 19.7624 16.4864 19.3551 15.0445 18.0637C13.9224 17.0584 13.1439 15.7769 12.9236 15.3972C12.7033 15.0181 12.8999 14.8125 13.0893 14.6234C13.2587 14.4537 13.4881 14.2215 13.6769 14.0002C13.8652 13.7789 13.9191 13.6208 14.0447 13.3677C14.1706 13.1147 14.1077 12.8934 14.0135 12.7036C13.9191 12.514 13.1945 10.6389 12.8589 9.88921" fill="#1FAD90"/>
</svg>
